<svg width="91" height="115" viewBox="0 0 91 115" fill="none" xmlns="http://www.w3.org/2000/svg">
<g clip-path="url(#clip0_510_5020)">
<path fill-rule="evenodd" clip-rule="evenodd" d="M20.5541 5.1894H39.9376C41.3565 5.1894 42.5201 6.34731 42.5201 7.75939V11.3602C42.5201 12.7723 41.3565 13.9302 39.9376 13.9302H20.5541C19.1351 13.9302 17.9715 12.7723 17.9715 11.3602V7.75939C17.9715 6.34731 19.1351 5.1894 20.5541 5.1894ZM0 0H60.4988V93.5999H0V0ZM62.755 0L90.6453 22.0779V93.614H62.755V0Z" fill="white"/>
<path fill-rule="evenodd" clip-rule="evenodd" d="M84.9835 106.527H82.33V104.409H83.1814L84.1747 103.336L82.9827 101.917H82.1739V99.7988H85.5937L86.8353 101.606L88.1124 99.7988H90.7588V101.917H89.8152L88.9425 102.891L90.2267 104.409H91.0072V106.527H87.6583L86.3529 104.692L84.9906 106.527H84.9835ZM72.0352 103.131C72.0352 102.143 72.4538 101.31 73.291 100.632C74.1282 99.9541 75.2563 99.6152 76.6753 99.6152C78.0943 99.6152 79.2721 99.947 80.166 100.597C81.06 101.253 81.507 102.108 81.507 103.16C81.507 104.212 81.0813 105.023 80.2228 105.701C79.3714 106.379 78.2433 106.718 76.8385 106.718C75.3273 106.718 74.1495 106.379 73.2981 105.701C72.4538 105.031 72.0281 104.169 72.0281 103.131H72.0352ZM75.5756 103.145C75.5756 104.219 75.9587 104.755 76.7321 104.755C77.548 104.755 77.9595 104.212 77.9595 103.131C77.9595 102.637 77.8602 102.256 77.6615 101.98C77.4558 101.705 77.172 101.571 76.7959 101.571C76.4199 101.571 76.129 101.705 75.9091 101.973C75.682 102.242 75.5756 102.63 75.5756 103.145ZM64.8835 106.527H60.4917V104.416H61.3786V99.0009H60.4775V96.8828H64.8835V100.229C65.4795 99.8623 66.2032 99.6787 67.0475 99.6787C68.1188 99.6787 69.0057 99.9823 69.7081 100.597C70.4105 101.204 70.7581 102.037 70.7581 103.082C70.7581 103.597 70.673 104.07 70.5027 104.487C70.3324 104.911 70.077 105.285 69.7365 105.624C69.0624 106.308 68.2181 106.647 67.2036 106.647C66.3025 106.647 65.5291 106.457 64.8764 106.075V106.527H64.8835ZM64.8551 103.138C64.8551 104.148 65.2595 104.656 66.0684 104.656C66.8346 104.656 67.2177 104.155 67.2177 103.145C67.2177 102.665 67.1113 102.298 66.8985 102.044C66.6856 101.797 66.4018 101.67 66.04 101.67C65.6568 101.67 65.366 101.804 65.1602 102.079C64.9544 102.362 64.8551 102.715 64.8551 103.138ZM50.9561 106.527H45.6065V104.409H46.4792V101.917H45.6065V99.7988H49.977V100.653C50.8355 99.9965 51.7578 99.6717 52.744 99.6717C53.6096 99.6717 54.2552 99.9117 54.6951 100.385C55.1279 100.858 55.3408 101.627 55.3408 102.679V104.402H56.1425V106.52H51.8359V103.534C51.8359 102.884 51.7791 102.453 51.6656 102.242C51.545 102.037 51.3179 101.938 50.9774 101.938C50.6652 101.938 50.3317 102.058 49.977 102.291V104.409H50.9561V106.527ZM36.4114 106.612H33.6373L31.5655 101.917H30.8419V99.7988H35.3968V101.917H34.7228L35.5174 104.155L37.1848 99.7988H39.7815L41.2998 104.155L42.1654 101.917H41.5198V99.7988H44.8118V101.917H44.152L42.1867 106.612H39.4055L37.8588 103.167L36.4114 106.612ZM20.8876 103.131C20.8876 102.143 21.3062 101.31 22.1434 100.632C22.9806 99.9541 24.1087 99.6152 25.5277 99.6152C26.9467 99.6152 28.1245 99.947 29.0185 100.597C29.9124 101.253 30.3594 102.108 30.3594 103.16C30.3594 104.212 29.9337 105.023 29.0752 105.701C28.2238 106.379 27.0886 106.718 25.6909 106.718C24.1797 106.718 23.0019 106.379 22.1505 105.701C21.3062 105.031 20.8805 104.169 20.8805 103.131H20.8876ZM24.4351 103.145C24.4351 104.219 24.8182 104.755 25.5916 104.755C26.4075 104.755 26.819 104.212 26.819 103.131C26.819 102.637 26.7197 102.256 26.521 101.98C26.3153 101.705 26.0315 101.571 25.6554 101.571C25.2794 101.571 24.9885 101.705 24.7686 101.973C24.5415 102.242 24.4351 102.63 24.4351 103.145ZM18.447 106.527H12.998V104.409H13.9204V101.917H12.998V99.7988H17.1912V101.486C17.3472 101.063 17.5956 100.702 17.9219 100.399C18.2341 100.095 18.5534 99.9047 18.8798 99.8129C19.1919 99.7282 19.646 99.6787 20.2491 99.6787V102.637C20.171 102.637 20.0717 102.637 19.9582 102.637C19.2416 102.637 18.7095 102.708 18.3618 102.849C18 102.997 17.7517 103.188 17.6239 103.428C17.4891 103.675 17.4182 104.007 17.4182 104.409H18.4399V106.52L18.447 106.527ZM6.00949 106.527H1.61771V104.416H2.50458V99.0009H1.60352V96.8828H6.00949V100.229C6.60546 99.8623 7.32915 99.6787 8.17345 99.6787C9.24479 99.6787 10.1317 99.9823 10.8341 100.597C11.5365 101.204 11.8841 102.037 11.8841 103.082C11.8841 103.597 11.799 104.07 11.6287 104.487C11.4584 104.911 11.203 105.285 10.8624 105.624C10.1884 106.308 9.34412 106.647 8.32954 106.647C7.42848 106.647 6.65513 106.457 6.00239 106.075V106.527H6.00949ZM5.98111 103.138C5.98111 104.148 6.38552 104.656 7.19435 104.656C7.9606 104.656 8.34373 104.155 8.34373 103.145C8.34373 102.665 8.23731 102.298 8.02446 102.044C7.81161 101.797 7.52781 101.67 7.16597 101.67C6.78284 101.67 6.49195 101.804 6.28619 102.079C6.08044 102.362 5.98111 102.715 5.98111 103.138Z" fill="white"/>
<path fill-rule="evenodd" clip-rule="evenodd" d="M66.7137 112.783C66.664 112.536 66.5363 112.31 66.3235 112.106C66.1106 111.901 65.8552 111.802 65.543 111.802C65.2592 111.802 65.0251 111.894 64.8264 112.077C64.6278 112.261 64.5072 112.494 64.4646 112.783H66.7208H66.7137ZM67.4374 113.292H64.4362C64.4788 113.617 64.6136 113.885 64.8264 114.09C65.0393 114.294 65.316 114.393 65.6566 114.393C66.1461 114.393 66.5363 114.195 66.8201 113.807L67.4374 114.083C67.2387 114.393 66.9762 114.626 66.6498 114.774C66.3306 114.923 65.99 115 65.6353 115C65.089 115 64.6207 114.831 64.2376 114.492C63.8473 114.153 63.6558 113.694 63.6558 113.122C63.6558 112.55 63.8473 112.127 64.2234 111.774C64.5994 111.421 65.0322 111.244 65.5217 111.244C66.0113 111.244 66.437 111.414 66.8272 111.76C67.2174 112.106 67.4161 112.614 67.4374 113.299V113.292ZM59.7393 113.115C59.7393 113.511 59.8529 113.807 60.0728 114.019C60.2928 114.231 60.5624 114.337 60.8745 114.337C61.1867 114.337 61.4421 114.224 61.6763 114.005C61.9104 113.786 62.0239 113.475 62.0239 113.087C62.0239 112.699 61.9033 112.395 61.6692 112.197C61.435 112 61.1654 111.894 60.8675 111.894C60.5482 111.894 60.2857 112.014 60.0657 112.247C59.8458 112.487 59.7393 112.776 59.7393 113.122V113.115ZM63.3649 114.273V114.894H62.0239V114.372C61.6763 114.76 61.2506 114.951 60.7468 114.951C60.2786 114.951 59.8742 114.796 59.5194 114.478C59.1647 114.16 58.9944 113.715 58.9944 113.129C58.9944 112.543 59.1718 112.084 59.5336 111.746C59.8954 111.407 60.3069 111.237 60.761 111.237C61.2435 111.237 61.6621 111.428 62.0239 111.809V110.404H61.3357V109.783H62.7263V114.273H63.3649ZM57.2561 114.273V111.957H56.6956V111.336H57.9514V114.273H58.5048V114.894H56.6956V114.273H57.2561ZM57.1568 110.129C57.1568 110.016 57.1994 109.917 57.2774 109.832C57.3554 109.747 57.4619 109.705 57.5825 109.705C57.696 109.705 57.7953 109.747 57.8805 109.825C57.9656 109.903 58.0082 110.002 58.0082 110.122C58.0082 110.242 57.9656 110.341 57.8805 110.418C57.7953 110.503 57.696 110.538 57.5825 110.538C57.469 110.538 57.3625 110.496 57.2845 110.411C57.1994 110.326 57.1639 110.228 57.1639 110.115L57.1568 110.129ZM53.3042 114.894V113.673H53.9286V113.793C53.9499 113.963 54.0421 114.097 54.1982 114.203C54.3543 114.308 54.5458 114.365 54.7587 114.365C54.9715 114.365 55.1631 114.33 55.2979 114.245C55.4327 114.167 55.5037 114.054 55.5037 113.92C55.5037 113.786 55.4469 113.687 55.3334 113.624C55.2199 113.56 54.9999 113.504 54.6665 113.447C54.1769 113.362 53.8222 113.228 53.6164 113.045C53.4035 112.861 53.2971 112.621 53.2971 112.324C53.2971 112.028 53.4106 111.781 53.6377 111.583C53.8647 111.385 54.1698 111.287 54.5387 111.287C54.8793 111.287 55.1631 111.357 55.4114 111.491V111.343H56.0358V112.522H55.4114V112.303C55.2199 112.014 54.9432 111.866 54.5813 111.866C54.3968 111.866 54.2479 111.908 54.1272 111.986C54.0066 112.063 53.9499 112.169 53.9499 112.303C53.9499 112.437 54.0066 112.529 54.113 112.579C54.2195 112.628 54.4607 112.685 54.8225 112.741C55.1702 112.798 55.4327 112.861 55.6101 112.932C55.7875 113.002 55.9365 113.122 56.05 113.292C56.1706 113.461 56.2273 113.652 56.2273 113.878C56.2273 114.21 56.0996 114.471 55.8442 114.661C55.5888 114.859 55.2624 114.951 54.8509 114.951C54.4678 114.951 54.1627 114.866 53.9144 114.697V114.894H53.29H53.3042ZM50.1895 111.343V111.774C50.6365 111.449 51.048 111.287 51.4241 111.287C51.6582 111.287 51.8498 111.343 51.9987 111.449C52.1477 111.555 52.2471 111.689 52.2967 111.851C52.3464 112.007 52.3677 112.24 52.3677 112.543V114.28H52.9708V114.902H51.6653V112.579C51.6653 112.31 51.6227 112.134 51.5447 112.049C51.4666 111.964 51.3673 111.929 51.2467 111.929C50.9345 111.929 50.5868 112.077 50.1966 112.381V114.28H50.8139V114.902H48.8699V114.28H49.4942V111.964H48.8699V111.343H50.1966H50.1895ZM47.2593 114.273V111.957H46.6988V111.336H47.9546V114.273H48.508V114.894H46.6988V114.273H47.2593ZM47.1529 110.129C47.1529 110.016 47.1884 109.917 47.2735 109.832C47.3515 109.747 47.458 109.705 47.5786 109.705C47.6921 109.705 47.7914 109.747 47.8766 109.825C47.9617 109.903 48.0043 110.002 48.0043 110.122C48.0043 110.242 47.9617 110.341 47.8766 110.418C47.7914 110.503 47.6921 110.538 47.5786 110.538C47.4651 110.538 47.3586 110.496 47.2806 110.411C47.1955 110.326 47.16 110.228 47.16 110.115L47.1529 110.129ZM44.8967 114.894V113.991H45.8048V114.894H44.8967ZM40.739 114.273V110.404H40.0934V109.783H41.4343V112.974L42.7682 111.915H42.1722V111.336H44.1446V111.915H43.5983L42.2574 113.023L43.5132 114.273H44.1375V114.894H43.2223L41.4272 113.108V114.273H42.0445V114.894H40.0863V114.273H40.7319H40.739ZM37.1135 111.343V111.774C37.5605 111.449 37.972 111.287 38.348 111.287C38.5822 111.287 38.7737 111.343 38.9227 111.449C39.0717 111.555 39.1711 111.689 39.2207 111.851C39.2704 112.007 39.2917 112.24 39.2917 112.543V114.28H39.8947V114.902H38.5893V112.579C38.5893 112.31 38.5467 112.134 38.4687 112.049C38.3906 111.964 38.2913 111.929 38.1707 111.929C37.8585 111.929 37.5108 112.077 37.1206 112.381V114.28H37.7379V114.902H35.7938V114.28H36.4182V111.964H35.7938V111.343H37.1206H37.1135ZM34.1762 114.273V111.957H33.6157V111.336H34.8715V114.273H35.4249V114.894H33.6157V114.273H34.1762ZM34.0769 110.129C34.0769 110.016 34.1194 109.917 34.1975 109.832C34.2755 109.747 34.382 109.705 34.5026 109.705C34.6161 109.705 34.7154 109.747 34.8006 109.825C34.8857 109.903 34.9283 110.002 34.9283 110.122C34.9283 110.242 34.8857 110.341 34.8006 110.418C34.7154 110.503 34.6161 110.538 34.5026 110.538C34.389 110.538 34.2826 110.496 34.2046 110.411C34.1194 110.326 34.084 110.228 34.084 110.115L34.0769 110.129ZM29.8483 114.273V110.404H29.2026V109.783H30.5507V111.746C30.9693 111.407 31.3737 111.237 31.7497 111.237C31.9839 111.237 32.1825 111.287 32.3315 111.385C32.4876 111.484 32.5869 111.611 32.6437 111.774C32.7004 111.936 32.7288 112.169 32.7288 112.48V114.273H33.339V114.894H32.0264V112.72C32.0264 112.452 32.0193 112.268 31.998 112.176C31.9839 112.084 31.9342 112.014 31.8561 111.95C31.7781 111.894 31.6859 111.866 31.5794 111.866C31.3098 111.866 30.9622 112.021 30.5436 112.324V114.273H31.1679V114.894H29.2026V114.273H29.8483ZM26.9961 111.957V111.336H27.4644V110.792L28.1668 110.15V111.336H28.8266V111.957H28.1668V113.687C28.1668 113.963 28.181 114.132 28.2164 114.203C28.2448 114.266 28.3229 114.301 28.4435 114.301C28.5712 114.301 28.6989 114.28 28.8266 114.231V114.866C28.6492 114.93 28.4648 114.958 28.2874 114.958C28.0745 114.958 27.8972 114.909 27.7694 114.817C27.6346 114.725 27.5566 114.605 27.5211 114.464C27.4856 114.323 27.4715 114.075 27.4715 113.73V111.964H27.0032L26.9961 111.957Z" fill="white"/>
</g>
<defs>
<clipPath id="clip0_510_5020">
<rect width="91" height="115" fill="white"/>
</clipPath>
</defs>
</svg>
