<svg width="33" height="8" viewBox="0 0 33 8" fill="none" xmlns="http://www.w3.org/2000/svg">
<g clip-path="url(#clip0_510_5062)">
<path d="M0.341797 0.658203H5.24561C7.02778 0.658203 8.29914 1.22148 8.29914 2.36957C8.29914 2.96514 7.76941 3.49613 7.09589 3.69346C8.29914 3.85849 9.35861 4.60834 9.35861 5.61291C9.35861 7.01214 7.75806 7.80863 5.31372 7.80863H0.341797V0.658203ZM5.37804 3.42796C6.33535 3.42796 6.91427 3.00819 6.91427 2.43415C6.91427 1.80629 6.28616 1.42957 5.16615 1.42957H1.66235V3.42796H5.37804ZM5.22669 7.03367C6.89535 7.03367 7.96617 6.53856 7.96617 5.62009C7.96617 4.75902 6.99373 4.18498 5.55588 4.18498H1.66235V7.03008H5.22669V7.03367Z" fill="white"/>
<path d="M11.2012 0.546875H12.4574V7.80493H11.2012V0.546875Z" fill="white"/>
<path d="M14.4365 5.78913V2.43457H15.6927V5.67791C15.6927 6.68249 16.4192 7.10226 17.7247 7.10226C19.1776 7.10226 20.0176 6.30936 20.0176 5.48059V2.43457H21.2739V7.80546H20.0706V6.85829C19.5749 7.55432 18.4209 7.91668 17.3652 7.91668C15.3825 7.91668 14.4441 7.22065 14.4441 5.78913H14.4365Z" fill="white"/>
<path d="M23.5632 3.13017H22.2578V2.43415H23.5632V2.02514C23.5632 0.69049 24.6189 0.328125 25.7238 0.328125C26.5146 0.328125 27.26 0.525452 27.6535 0.69049L27.2411 1.32911C27.0746 1.26453 26.5978 1.06362 25.9849 1.06362C25.3719 1.06362 24.8119 1.27171 24.8119 2.11125V2.43056H27.3697V3.12659H24.8119V7.80504H23.5557V3.13017H23.5632Z" fill="white"/>
<path d="M28.7429 3.13017H27.4375V2.43415H28.7429V2.02514C28.7429 0.69049 29.7986 0.328125 30.9035 0.328125C31.6943 0.328125 32.4397 0.525452 32.8332 0.69049L32.4208 1.32911C32.2543 1.26453 31.7775 1.06362 31.1645 1.06362C30.5516 1.06362 29.9916 1.27171 29.9916 2.11125V2.43056H32.5494V3.12659H29.9916V7.80504H28.7353V3.13017H28.7429Z" fill="white"/>
</g>
<defs>
<clipPath id="clip0_510_5062">
<rect width="32.4953" height="7.58813" fill="white" transform="translate(0.341797 0.328125)"/>
</clipPath>
</defs>
</svg>
