<svg width="14" height="20" viewBox="0 0 14 20" fill="none" xmlns="http://www.w3.org/2000/svg">
<path d="M3.07488 3.07334C3.47064 2.52566 3.9336 2.07044 4.46376 1.70058C5.36728 1.07466 6.35294 0.761719 7.43567 0.761719C8.5184 0.761719 9.45923 1.10312 10.2657 1.77883C10.5793 2.02777 10.8406 2.29093 11.0572 2.56832C11.774 3.50009 11.9906 4.80883 11.6919 6.48742C11.4081 8.23714 10.8705 9.71658 10.0716 10.9328C9.27257 12.1491 8.09276 13.3014 6.53214 14.3967C5.28513 15.2645 4.68778 15.8619 4.72512 16.182C4.78485 16.3741 4.85206 16.5021 4.91179 16.5803C5.24034 17.0071 5.72571 17.2133 6.36041 17.1991C7.51781 17.1707 9.07841 16.4665 11.0348 15.1009C11.7218 14.6172 12.1623 14.3398 12.349 14.2687C12.5357 14.1976 12.7597 14.226 13.021 14.354C13.1928 14.4679 13.3048 14.5603 13.3645 14.6386C13.6408 14.9942 13.2227 15.6699 12.1175 16.6728C11.8412 16.9431 11.3783 17.3058 10.7436 17.7468C9.01869 18.9489 7.32366 19.5534 5.6585 19.5534C3.98587 19.5534 2.68659 18.9488 1.75321 17.7397C1.46199 17.3627 1.26785 17.0497 1.16331 16.815C0.588347 15.5845 0.356868 13.8064 0.476342 11.4734C0.68542 7.9882 1.55159 5.19291 3.06741 3.08756L3.07488 3.07334ZM7.7194 3.3863C7.35351 3.3294 7.03244 3.40053 6.77109 3.58546C6.45 3.80595 5.99451 4.47453 5.38967 5.59834C4.7475 6.82172 4.29948 8.18024 4.06053 9.66679C3.79172 11.1747 3.76932 12.0638 3.9784 12.3412C4.1128 12.519 4.36669 12.4763 4.74004 12.2202C5.1134 11.9642 5.41209 11.7152 5.6361 11.4805C7.62235 9.5103 8.61545 7.38363 8.60799 5.10046C8.60052 4.29673 8.53331 3.81305 8.42131 3.66368C8.32424 3.53566 8.09276 3.4503 7.72688 3.3934L7.7194 3.3863Z" fill="black"/>
</svg>
