<svg width="5" height="38" viewBox="0 0 5 38" fill="none" xmlns="http://www.w3.org/2000/svg">
<path d="M22.4698 1.96994V18.972L21.3199 19.0162C20.8247 19.0323 19.2007 19.0403 17.9585 19.0403C16.7163 19.0403 15.0965 19.0363 14.6013 19.0162L13.4514 18.972V8.65088C13.4514 8.65088 11.0258 8.97267 10.1529 9.08931V37.1404H0.135742L2.2592 0.980469L3.87906 1.06091C5.55768 1.14538 7.29086 1.23789 8.99466 1.2942L10.1529 1.3304V2.95941C10.6523 2.89506 12.8555 2.60143 13.4514 2.52099V1.96994L14.6013 1.9257C15.0965 1.90961 16.7205 1.90156 17.9585 1.90156C19.1965 1.90156 20.8247 1.90558 21.3199 1.9257L22.4698 1.96994Z" fill="white"/>
</svg>
