<svg width="9" height="28" viewBox="0 0 9 28" fill="none" xmlns="http://www.w3.org/2000/svg">
<path d="M1.44626 0.511394C1.77481 0.276675 2.14817 0.127308 2.56633 0.0561809C3.07409 -0.0291713 3.52958 0.0277299 3.94027 0.219772C4.35096 0.411815 4.60484 0.7959 4.70938 1.36492C4.79151 1.82013 4.75418 2.34647 4.58244 2.92971C4.23148 4.19576 3.67145 4.89281 2.88741 5.02083C2.49912 5.08485 2.11084 5.00661 1.73002 4.779C1.34919 4.5514 1.11024 4.19576 1.02063 3.7121L0.916095 3.15731C0.699549 1.81301 0.871302 0.931042 1.4388 0.511394H1.44626ZM2.61113 8.24288C2.69326 8.02239 2.79781 7.87302 2.91728 7.79478C3.04422 7.71654 3.31304 7.65253 3.73866 7.60985C4.31363 7.54584 4.70937 7.5814 4.94085 7.73788C5.17233 7.88725 5.37395 8.23577 5.55316 8.78345C5.73237 9.32401 5.96385 10.3554 6.24013 11.8632C6.55375 13.5418 6.9719 16.2731 7.48713 20.0499C8.00983 23.8268 8.27118 26.0957 8.29358 26.8497C8.31598 27.2907 8.17411 27.6036 7.86796 27.8028C7.56928 28.0019 7.18846 27.9521 6.7255 27.6463C6.29987 27.3689 5.99372 27.0488 5.80704 26.7003C5.62036 26.3518 5.42622 25.6334 5.22461 24.5523C4.94086 23.0159 4.70938 21.6147 4.53764 20.3487C4.09708 17.3116 3.73119 15.0355 3.44744 13.5276C3.27569 12.6172 3.14876 12.0055 3.05916 11.6996C2.76794 10.4549 2.61113 9.77922 2.58873 9.66542C2.46925 9.01105 2.46926 8.54161 2.60366 8.24999L2.61113 8.24288Z" fill="black"/>
</svg>
