<svg width="11" height="31" viewBox="0 0 11 31" fill="none" xmlns="http://www.w3.org/2000/svg">
<path d="M5.03656 9.17293C5.21577 8.988 5.38751 8.88132 5.54431 8.85287C5.70112 8.82442 5.99981 8.87421 6.44784 9.00223C7.0452 9.16583 7.43349 9.36499 7.5903 9.61394C7.74711 9.85577 7.79938 10.2825 7.73964 10.8942C7.6799 11.5059 7.45589 12.6226 7.06761 14.2372C6.63452 16.0367 5.85046 18.9244 4.70053 22.8933C3.5506 26.8622 2.81883 29.2378 2.50522 29.9989C2.33347 30.4399 2.04972 30.703 1.66143 30.7813C1.27314 30.8595 0.914718 30.6532 0.593633 30.1625C0.29495 29.7144 0.130675 29.2734 0.0933399 28.8537C0.0634715 28.427 0.182949 27.6375 0.459231 26.4781C0.854987 24.828 1.23581 23.3414 1.62409 22.0113C2.52014 18.8035 3.16232 16.3923 3.5506 14.7706C3.78208 13.7962 3.92396 13.1347 3.96876 12.7933C4.22264 11.4348 4.36452 10.695 4.39439 10.5741C4.55866 9.86998 4.7752 9.40765 5.02908 9.17293H5.03656ZM7.29161 1.00046C7.71723 0.900887 8.1578 0.900887 8.60582 1.00046C9.15092 1.12138 9.58401 1.3561 9.90509 1.71173C10.2262 2.06737 10.3083 2.55104 10.1664 3.16273C10.047 3.6535 9.77816 4.15139 9.35253 4.67061C8.44902 5.79442 7.57536 6.25675 6.74652 6.07893C6.32836 5.98647 5.98488 5.75173 5.70113 5.37476C5.41738 4.99068 5.34271 4.54258 5.46965 4.02336L5.61152 3.42589C5.98487 1.99624 6.54491 1.19251 7.29908 1.00046H7.29161Z" fill="black"/>
</svg>
