<svg width="17" height="27" viewBox="0 0 17 27" fill="none" xmlns="http://www.w3.org/2000/svg">
<path d="M7.7503 1.26127C8.54181 0.834512 9.25865 0.663808 9.89335 0.742048C10.5281 0.820287 11.2897 1.15458 12.1932 1.73071C13.7986 2.71937 14.9486 4.04944 15.6355 5.71381C16.3225 7.37818 16.5241 9.2417 16.2329 11.3044C16.0388 12.6771 15.5758 14.2277 14.8515 15.9419C13.9629 17.9334 12.6636 19.9534 10.9462 22.0161C9.23625 24.0788 7.63083 25.5369 6.12994 26.3975C5.49524 26.7531 4.89788 26.8954 4.32291 26.8243C3.38952 26.7033 2.68015 26.2624 2.18732 25.48C1.70196 24.7047 1.53021 23.7729 1.67956 22.6776C1.73929 22.2721 1.83637 21.8952 1.97825 21.5324C2.12012 21.1697 2.29186 21.0061 2.5084 21.0274C2.95643 21.0843 3.19538 21.5964 3.21031 22.5638C3.21031 23.0047 3.30738 23.4528 3.50153 23.9152C3.69567 24.3775 3.86741 24.6193 4.02422 24.6407C4.2333 24.6691 4.756 24.3277 5.59231 23.6378C6.42116 22.9407 7.22014 22.1868 7.97431 21.3759C9.4528 19.7543 10.5803 18.0899 11.3345 16.3757L11.6929 15.4582L11.1478 15.7427C9.90082 16.3473 8.57168 16.5535 7.15293 16.3757C4.62159 16.0557 2.74735 14.8821 1.53022 12.8621C0.798442 11.7169 0.574434 10.145 0.858183 8.13924C1.38088 4.38374 3.09831 2.29261 6.003 1.87296C6.56304 1.79472 7.14547 1.59557 7.74284 1.26127H7.7503ZM10.7147 4.39085C10.3712 4.22726 9.93816 4.12057 9.43039 4.05656C8.04152 3.87874 6.90652 4.14191 6.01047 4.84607C5.50271 5.22304 5.03975 5.84184 4.62906 6.70959C4.21837 7.57734 3.94956 8.4522 3.82262 9.34128C3.72554 10.0597 3.72554 10.6002 3.82262 10.963C4.11383 12.165 4.74106 13.0612 5.69685 13.6516C6.15234 13.9147 6.55557 14.0641 6.92145 14.1139C8.54928 14.3202 10.08 13.4169 11.5286 11.4111C12.0215 10.714 12.35 9.7965 12.5143 8.64424C12.6263 7.84051 12.6114 7.18614 12.4695 6.66691C12.1932 5.55022 11.6108 4.79628 10.7222 4.39085H10.7147Z" fill="black"/>
</svg>
