<svg width="135" height="18" viewBox="0 0 135 18" fill="none" xmlns="http://www.w3.org/2000/svg">
<path fill-rule="evenodd" clip-rule="evenodd" d="M126.649 12.1427L129.861 17.5913H134.406V16.9375L128.921 8.40646L133.8 0.934051V0.280215H129.467L126.649 4.7948H126.527L123.77 0.280215H119.346V0.934051L124.224 8.40646L118.77 16.9375V17.5913H123.285L126.527 12.1427H126.679H126.649ZM115.649 13.6994V4.10982H117.618V0.24908H109.406V4.10982H111.376V13.6994H109.224V17.5913H117.77V13.6994H115.618H115.649ZM101.315 9.18484H98.2244V4.23436C99.2244 4.23436 100.285 4.23436 101.315 4.23436C103.83 4.23436 103.679 9.18484 101.315 9.18484ZM98.2244 17.5913V13.1701H101.346C109.437 13.1701 109.437 0.280215 101.346 0.24908H93.9214V17.5913H98.2244ZM81.3456 7.75262L74.7396 0.217944H73.1335V17.6224H77.5578V9.90094L81.1335 13.7617H81.6184L85.2244 9.90094V17.6224H89.6487V0.217944H88.1032L81.3759 7.75262H81.3456ZM69.2547 0.24908H58.7093V17.5913H69.4669V13.6371H63.0123V10.5859H68.7396V6.63176H63.0123V4.1721H69.2547V0.217944V0.24908ZM49.6184 0.24908H45.285V17.5913H55.7396V13.606H49.6184V0.24908ZM32.679 12.2983H28.4972C28.4062 19.9264 42.1335 19.8019 42.1335 12.5163C42.1335 8.18851 38.8608 7.65922 35.4972 7.2856C33.982 7.09879 32.7093 6.84971 32.8305 5.54204C32.982 3.48712 37.4972 3.30031 37.4972 5.60431H41.5881C41.679 -1.8681 28.5578 -1.8681 28.7093 5.60431C28.7699 9.37165 31.1638 10.6482 34.8305 10.9284C36.5275 11.0218 37.9214 11.302 37.9214 12.5163C37.9214 14.5401 32.6487 14.5089 32.6487 12.3295L32.679 12.2983ZM24.7093 13.6994V4.10982H26.679V0.24908H18.4669V4.10982H20.4366V13.6994H18.285V17.5913H26.8305V13.6994H24.679H24.7093ZM10.8608 11.6445H7.01231L8.9214 7.09879L10.8608 11.6445ZM13.2547 17.5913H17.4669V16.9375L9.8608 0.0311324H8.01232L0.40625 16.9375V17.5913H4.61838L5.61837 15.4118H12.285L13.285 17.5913H13.2547Z" fill="white"/>
</svg>
