<svg width="69" height="83" viewBox="0 0 69 83" fill="none" xmlns="http://www.w3.org/2000/svg">
<path d="M22.3138 81.542C22.3138 80.1977 22.3885 78.8391 22.1719 77.5019C21.9554 76.1576 21.6268 74.8276 21.373 73.4904C21.1191 72.1461 20.8204 70.8231 20.2977 69.5428C19.775 68.2626 19.4241 67.153 19.327 65.7802C19.1403 63.0845 17.8261 60.46 16.5791 58.0701C15.9519 56.8752 15.2724 55.6945 14.4958 54.5778C13.6744 53.4113 12.6439 52.3444 11.6956 51.2632C10.6054 50.0256 9.50777 48.7951 8.43997 47.5362C7.82767 46.8107 7.13323 45.566 6.02063 45.5233C4.83337 45.4735 4.31067 46.7182 4.7587 47.6144C4.8483 47.7851 4.95284 48.0696 4.77363 47.5362C5.11712 46.9672 5.45313 46.3982 5.79662 45.8292C6.16997 45.8789 6.54334 45.9216 6.92416 45.9714C7.46925 46.3555 6.75241 45.7082 6.62547 45.5731C6.22224 45.1392 5.80409 44.7267 5.40086 44.2928C4.70643 43.5602 4.17626 42.792 3.82531 41.8603C3.45196 40.8787 3.0338 39.7692 3.0786 38.7094C3.1234 37.6496 3.6237 36.476 4.2808 35.6367C4.51975 35.3308 4.8483 35.1246 5.19179 34.9254C5.40087 34.8045 5.61742 34.6836 5.84143 34.584C5.92357 34.5342 6.01318 34.4915 6.11025 34.4702C6.32679 34.4204 6.22225 34.392 5.80409 34.3777C5.80409 34.3777 7.97702 36.2697 8.1637 36.4404C9.09708 37.2726 9.99312 38.1475 10.8518 39.0508C11.4119 39.634 11.9346 40.2386 12.8829 40.0181C13.5848 39.8545 14.1971 38.9867 13.9059 38.311C13.8088 38.0905 13.6819 37.927 13.5848 37.7207L12.7111 39.762C12.2407 39.6411 11.7628 39.5202 11.2924 39.4064C12.3826 40.2173 13.0696 41.4406 14.212 42.2301C15.7278 43.2828 17.632 43.1192 18.6251 41.4975C19.6182 39.8758 19.2523 37.6994 19.7451 35.8927C20.0513 34.776 20.223 33.7518 20.2454 32.5996C20.2753 31.3122 20.559 30.0817 20.8129 28.8227C21.2908 26.44 21.6567 24.043 22.269 21.6816C22.8888 19.306 23.4189 16.8805 24.2851 14.5689C25.1214 12.3284 25.913 10.0524 27.0256 7.91855C27.5706 6.88009 28.1605 5.85587 28.6534 4.78897C28.7504 4.57559 28.9073 3.87143 29.0939 3.75763C29.303 3.6296 29.0342 3.72918 29.0865 3.72918C28.9894 3.72206 29.2657 3.91411 29.3254 3.97812C30.0796 4.81742 30.886 6.01235 31.1772 7.10059C31.4685 8.18883 31.0204 9.462 30.8188 10.5716C30.565 11.9728 30.1169 13.3242 29.8854 14.7254C29.6764 15.9772 28.631 16.9019 29.191 18.2462C29.6092 19.2491 30.7442 19.5834 31.6327 18.8579C33.2232 17.5562 32.932 15.5149 33.731 13.8363C34.2089 12.8334 34.7764 11.859 35.2841 10.8632C35.7919 9.86742 36.1951 8.88587 36.7626 7.95411C37.2181 7.20728 37.8528 6.61693 38.5323 6.04792C39.167 5.51447 39.8241 4.88144 40.5335 4.44756C40.9591 4.19151 42.0045 3.93544 42.3256 3.98523C42.2136 3.97101 42.1837 3.88565 42.3331 4.01368C42.4525 4.11326 42.5496 4.2484 42.6616 4.35509C43.0574 4.74629 43.5129 5.06636 43.9758 5.37932L43.4531 4.88143C43.8862 5.60692 44.0804 6.432 44.5583 7.14327C44.969 7.75496 45.5589 8.2813 45.8725 8.957C46.2234 9.71095 46.0442 10.5431 45.9173 11.3255C45.7605 12.2929 45.7381 13.1962 45.753 14.1706C45.7679 15.0312 45.4394 15.7567 45.2079 16.5818C44.9391 17.5136 44.7823 18.4809 44.3641 19.3629C43.9833 20.1595 43.5054 20.9134 43.2366 21.7598C42.9678 22.6062 42.9902 23.5167 42.5422 24.2919C43.3859 24.7614 44.2223 25.2308 45.066 25.6931C45.6858 24.3417 46.3429 22.9832 47.2763 21.8025C48.2097 20.6218 49.2924 19.3842 50.2781 18.1537C50.7634 17.5491 51.2712 16.9659 51.8387 16.4253C52.1 16.1693 52.3763 15.9274 52.6302 15.6714C52.8841 15.4153 53.1081 15.0028 53.4217 14.7894C53.7353 14.576 54.1609 14.5191 54.5268 14.5333C55.1391 14.5618 55.3333 14.8107 55.6618 15.2731C56.5504 16.5391 57.5062 17.7269 58.0886 19.1637C58.3724 19.8536 58.6263 20.6147 58.7233 21.3544C58.8353 22.2293 58.5142 22.8979 58.2006 23.6945C57.6555 25.0815 57.9019 26.568 57.3718 27.9265C57.1254 28.5667 56.752 29.157 56.4235 29.7616C56.1397 30.2879 55.9232 30.8996 55.5424 31.3691C55.1914 31.8029 54.5492 32.2084 54.1833 32.7347C53.7353 33.3677 53.4964 34.1217 53.1305 34.8045C52.324 36.2982 51.3682 37.6211 49.9719 38.6738L52.4136 40.0252C52.7721 38.7449 53.9145 37.8345 54.9076 36.9739C55.9904 36.035 57.2299 35.4446 58.5366 34.8116C59.1489 34.52 59.7538 34.207 60.3138 33.8372C60.7992 33.5171 61.2397 33.1472 61.7998 32.941C62.1806 32.7987 62.7929 32.5996 63.211 32.7418C63.7263 32.9196 64.2191 33.5882 64.5103 33.9936C65.1002 34.8187 65.2794 35.5015 65.0181 36.3693C64.8389 36.9668 64.585 37.5927 64.3983 37.991C63.6441 39.6056 62.7406 41.1561 61.7998 42.6782C59.694 46.0781 57.3569 49.357 54.9375 52.572C54.034 53.774 53.1155 54.9618 52.1822 56.1354C51.9432 56.4342 52.1822 56.1354 52.0627 56.2848C51.988 56.3702 51.9208 56.4626 51.8461 56.548C51.7192 56.7045 51.5923 56.8609 51.4579 57.0103C51.2338 57.2664 51.0621 57.4442 50.8455 57.5864C49.3596 58.5822 48.0454 59.706 46.664 60.8298C45.3647 61.8896 43.9534 63.0561 42.9379 64.3719C42.4077 65.0547 42.1091 65.8443 41.7506 66.6124C41.6013 66.9396 41.452 67.3095 41.228 67.594C40.9965 67.8998 40.653 68.099 40.3692 68.355C39.8017 68.8814 39.5105 69.5357 39.182 70.2114C38.7414 71.1005 38.2785 71.9754 37.8304 72.8574C37.009 74.4577 39.5255 75.8731 40.3543 74.2586C40.7575 73.4762 41.1682 72.6938 41.5565 71.9043C41.8701 71.2712 42.0941 70.6026 42.6542 70.1403C43.2665 69.6282 43.7369 69.0947 44.0953 68.3906C44.4761 67.6367 44.73 66.8116 45.2079 66.1074C45.6111 65.5242 46.1936 65.0619 46.7163 64.5782C47.3808 63.9665 48.0305 63.3548 48.7324 62.7858C49.3671 62.2666 50.0018 61.7616 50.6141 61.221C51.2637 60.6449 51.9955 60.2181 52.7049 59.706C53.5188 59.1228 54.0937 58.2906 54.7135 57.5224C55.7514 56.235 56.7595 54.9192 57.7451 53.5962C60.3736 50.0897 62.9198 46.4977 65.1376 42.7351C66.0635 41.1703 66.9371 39.5558 67.5793 37.863C67.8556 37.1375 68.1095 36.3479 68.102 35.5727C68.0871 34.0577 67.2283 32.6351 66.1904 31.5398C64.9509 30.231 63.4873 29.6762 61.6504 30.0674C59.9629 30.4302 58.7009 31.5967 57.1926 32.3364C54.1983 33.7945 50.5319 35.9354 49.606 39.2713C49.2028 40.7222 50.965 41.4406 52.0477 40.6227C53.4889 39.5344 54.5866 38.1119 55.4527 36.5756C55.841 35.8927 56.0949 35.1388 56.5056 34.4702C56.8715 33.8656 57.5435 33.4744 57.9766 32.9054C58.3873 32.3648 58.6412 31.7532 58.9623 31.1628C59.3879 30.3804 59.8285 29.6122 60.1495 28.7943C60.4706 27.9763 60.5453 27.1939 60.5826 26.3333C60.6274 25.3873 60.9933 24.5836 61.3368 23.7087C62.7107 20.1737 60.0375 16.4182 58.0513 13.6443C57.0134 12.1933 55.5274 11.546 53.6905 11.8163C51.9059 12.0724 51.1069 13.2175 49.9122 14.3484C48.3665 15.8065 47.2166 17.5918 45.8127 19.1708C44.4239 20.7285 43.4307 22.4213 42.572 24.2919C42.2509 24.9819 42.3629 25.7785 43.0947 26.191C43.7593 26.568 44.7151 26.3475 45.0884 25.6931C45.4991 24.9819 45.6933 24.2564 45.8501 23.4669C46.0293 22.5707 46.3504 21.8452 46.7685 21.0343C47.5974 19.4411 48.0454 17.6274 48.5009 15.9061C48.7025 15.1379 48.71 14.3698 48.6801 13.5874C48.6428 12.6698 48.822 11.8163 48.9414 10.913C49.1729 9.13482 48.6801 7.73362 47.56 6.33242C47.1269 5.79186 46.7984 5.25129 46.5445 4.61826C46.3877 4.23418 46.2458 3.82164 45.9994 3.48023C45.7157 3.08903 45.2751 2.88277 44.9242 2.55559C44.5508 2.20706 44.2521 1.81587 43.7892 1.55981C43.1096 1.18995 42.3256 1.23262 41.5789 1.31798C40.8322 1.40333 40.1004 1.53847 39.406 1.86566C38.6742 2.21418 38.0768 2.79741 37.4571 3.2953C36.2549 4.25551 35.0601 5.22995 34.2686 6.53868C33.1934 8.32397 32.3645 10.28 31.4013 12.1221C30.9532 12.9686 30.6321 13.8007 30.438 14.7325C30.2812 15.4864 30.2439 16.3471 29.6017 16.8734L32.0434 17.4851C31.909 17.165 32.3645 16.66 32.5139 16.2973C32.7453 15.6998 32.7528 15.0739 32.8947 14.4551C33.1934 13.1819 33.5518 11.9443 33.7833 10.6498C33.9849 9.52601 34.3358 8.39509 34.2014 7.24995C34.067 6.10481 33.5518 4.98101 32.8947 3.97812C31.7746 2.26397 29.9676 -0.0903356 27.5781 1.34643C26.6821 1.87988 26.4506 2.80453 26.0324 3.65805C25.4724 4.8103 24.8302 5.927 24.2478 7.06503C21.9255 11.6456 20.5441 16.6316 19.3344 21.5607C18.7296 24.0217 18.3488 26.5253 17.841 29.0077C17.6021 30.1884 17.393 31.3691 17.3706 32.5711C17.3557 33.1757 17.3706 33.766 17.2213 34.3564C17.057 34.9823 16.8554 35.5656 16.7732 36.2128C16.6388 37.2868 16.594 38.3537 16.3476 39.4206C16.3028 39.6269 16.2356 39.8261 16.1759 40.0323C16.146 40.0537 16.1236 40.0892 16.1161 40.1319C15.9145 40.3026 15.9369 40.3097 16.1908 40.139C16.1833 39.8901 16.5642 40.5444 16.1908 40.0963C16.2057 40.1106 15.9593 39.9541 15.8921 39.9114C14.7795 39.1432 13.6072 36.668 11.9719 37.0521C10.9713 37.2868 10.7398 38.3039 11.0983 39.0934C11.1655 39.2357 11.3745 39.5984 11.1207 39.0152C11.4641 38.4462 11.8002 37.8772 12.1436 37.3082C12.517 37.358 12.8904 37.4006 13.2712 37.4504C13.7789 37.8203 13.3608 37.486 13.2637 37.3722C13.0173 37.0948 12.7559 36.8316 12.4946 36.5684C11.9644 36.0279 11.4193 35.5015 10.8668 34.9894C9.86619 34.0648 8.85066 33.1046 7.7754 32.2653C6.54333 31.3122 5.24406 31.6963 3.98959 32.372C2.73512 33.0477 1.83907 33.9794 1.18197 35.2597C0.487527 36.6111 0.0618991 38.0692 0.256043 39.5771C0.427786 40.9214 0.868343 42.2301 1.42091 43.4677C2.01081 44.7836 2.97407 45.8149 3.98212 46.8605C4.68403 47.586 5.3934 48.7596 6.618 48.4822C7.36471 48.3115 7.87247 47.4651 7.64099 46.7751C7.55139 46.5191 7.43939 46.4053 7.33485 46.1848L6.07291 48.2759C5.72942 48.1408 5.38593 48.0056 5.04245 47.8705C5.95343 48.7027 6.67027 49.7838 7.47671 50.7156C8.61171 52.0385 9.79898 53.3188 10.9414 54.6418C13.0472 57.0885 14.5555 59.9905 15.7054 62.9494C15.9892 63.6749 16.2879 64.4146 16.4074 65.1828C16.5194 65.9012 16.4895 66.6338 16.594 67.3521C16.833 68.9525 17.6917 70.375 18.1173 71.9256C18.5429 73.4762 18.752 75.1619 19.1104 76.7693C19.4689 78.3768 19.439 79.8776 19.4465 81.4922C19.4465 83.2846 22.3661 83.2846 22.3661 81.4922L22.3138 81.542Z" fill="black"/>
</svg>
