<svg width="23" height="20" viewBox="0 0 23 20" fill="none" xmlns="http://www.w3.org/2000/svg">
<path d="M19.9422 0.370117C20.2334 0.398568 20.562 0.526595 20.9204 0.747089C21.4207 1.05293 21.8762 1.52238 22.3093 2.15541C22.6677 2.78132 22.6901 3.32188 22.3914 3.76998C22.0181 4.32477 21.5103 4.40301 20.8756 4.01181C20.5172 3.79132 19.987 3.76288 19.2851 3.93358C18.8595 4.04738 18.5907 4.13984 18.4787 4.21808C18.3667 4.29632 18.2771 4.46703 18.2173 4.7302C18.1277 4.97203 17.941 5.30632 17.6573 5.72597C17.4109 6.09583 17.2093 6.359 17.0525 6.52971C16.8957 6.70041 16.7239 6.92801 16.5298 7.21252C16.2311 7.66062 16.1116 8.0447 16.1863 8.37189C16.261 8.69907 16.5447 9.12585 17.045 9.65218C17.4557 10.0861 17.7394 10.5911 17.9037 11.1601C18.068 11.722 18.0605 12.1416 17.8813 12.4048C17.7768 12.5613 17.5304 12.6751 17.157 12.7391C16.7762 12.8031 16.5074 12.7889 16.3431 12.6893L16.261 12.6395C15.6412 11.8856 14.775 11.0249 13.6773 10.0505C13.2442 9.70908 12.7888 9.54548 12.3183 9.5526C11.8255 9.58816 11.2132 9.91535 10.474 10.5413C9.73472 11.1672 8.35331 12.5542 6.31479 14.6951C4.38828 16.6795 3.25329 17.9171 2.91727 18.415C2.7754 18.6213 2.69326 18.7778 2.66339 18.8773C2.57378 19.233 2.46925 19.5032 2.34977 19.6882C2.22283 19.8731 1.96895 19.9585 1.58813 19.9442C1.38652 19.8945 1.24465 19.8446 1.16251 19.7949C0.744351 19.5388 0.848887 18.5786 1.46866 16.9142L2.13323 14.9796L5.07526 11.7575C7.09137 9.53126 8.1293 8.36477 8.20397 8.25808C8.30851 8.1016 8.2637 7.95936 8.07703 7.84556C8.02476 7.80999 7.94262 7.77442 7.83808 7.72463C7.73354 7.68196 7.56926 7.61084 7.36019 7.51838C7.15111 7.42591 6.9495 7.34056 6.77029 7.26943C6.58361 7.19119 6.34466 7.06317 6.03851 6.87824C5.48595 6.53683 5.25447 6.10295 5.34407 5.56239C5.40381 5.29922 5.48595 5.09295 5.59049 4.93647C6.05345 4.25365 7.15111 4.16118 8.88347 4.66619C10.0259 4.99337 10.7652 5.1214 11.0937 5.04316C11.4223 4.96492 11.9898 4.5595 12.7962 3.82689C13.6549 3.01605 14.9019 2.21232 16.5298 1.42992C18.1576 0.640414 19.2926 0.291877 19.9273 0.391454L19.9422 0.370117Z" fill="black"/>
</svg>
