<svg width="9" height="41" viewBox="0 0 9 41" fill="none" xmlns="http://www.w3.org/2000/svg">
<path d="M22.1895 13.3425L21.0355 13.4189C20.6536 13.443 19.3611 13.443 18.9792 13.443C18.5973 13.443 17.3047 13.443 16.9019 13.4189L16.8221 6.58512L14.9547 6.59719L14.8456 6.60524L15.7226 40.022H5.74745L5.81039 38.8154C6.06219 34.0852 6.31818 29.355 6.57836 24.6249C6.84694 19.7499 7.10712 11.9468 7.36731 7.07182C6.72104 7.10802 6.07478 7.13617 5.43271 7.16835C4.27026 7.22466 3.10782 7.28499 1.94957 7.34935L0.770338 7.41371L0.682207 7.37751C0.539525 5.58358 0.539525 4.48551 0.682207 2.69159L0.761943 1.68201L1.81527 1.62972C7.29597 1.35218 12.89 1.04247 18.2951 0.740803L21.7321 0.551758L21.7909 1.71016C21.8076 2.07217 21.8076 2.43015 21.8076 2.78008C21.8076 3.13002 21.8076 3.43571 21.8244 3.7414C21.9545 6.53686 22.0552 9.37254 22.1518 12.1157L22.1937 13.3385L22.1895 13.3425Z" fill="white"/>
</svg>
