<svg width="70" height="108" viewBox="0 0 70 108" fill="none" xmlns="http://www.w3.org/2000/svg">
<path d="M69.6434 43.1734V10.4914C69.6434 7.05292 68.7269 4.32012 66.7539 2.51266C63.5803 -0.400167 59.5281 -0.0185114 58.96 0.0426975C57.6649 0.0426975 6.24384 0.0426975 6.22112 0.0426975H5.47128C5.19103 0.0426975 4.91079 0.0426975 4.63433 0.0426975C4.63054 0.0426975 3.81632 0.0426975 3.76709 0.0426975C3.75194 0.0426975 3.02482 0.0426975 2.81274 0.0426975C2.80517 0.276732 2.58173 0.449557 2.34693 0.460358C2.24089 0.463959 2.13107 0.47116 2.02503 0.481961C1.99852 0.481961 1.97201 0.485562 1.94929 0.489163C1.94929 0.489163 1.94171 0.489163 1.93793 0.489163C1.88491 0.496364 1.83189 0.507165 1.78266 0.517967C1.73342 0.528768 1.68419 0.54317 1.63496 0.557573C1.61602 0.568374 1.60088 0.575575 1.58194 0.586377C1.58194 0.586377 1.58194 0.586377 1.57815 0.586377C1.56301 0.600779 1.55164 0.60798 1.54786 0.61158C1.52135 0.636784 1.49484 0.665588 1.46833 0.694392C1.45697 0.712395 1.44561 0.726797 1.43424 0.7448C1.41152 0.780805 1.3888 0.820411 1.36608 0.860017C1.33957 0.903223 1.31684 0.95003 1.29791 0.996836C1.28276 1.03644 1.27519 1.05084 1.27519 1.04724C1.20702 1.21647 1.14643 1.38569 1.07826 1.55492C1.0063 1.72414 0.885117 1.85016 0.688189 1.87536C0.654105 1.87896 0.623808 1.87536 0.589725 1.87536V2.113C0.589725 2.1418 0.589725 2.68188 0.589725 2.71789C0.585938 3.15715 0.585938 4.34172 0.585938 4.57216V105.358C0.767718 105.383 0.938136 105.513 0.983581 105.686C1.04417 105.913 1.08205 106.147 1.1237 106.377C1.37744 106.258 1.65011 106.283 1.86597 106.463C1.90384 106.496 1.93793 106.532 1.96822 106.568C1.98716 106.589 2.05154 106.643 2.07805 106.676C2.10077 106.683 2.12349 106.687 2.14622 106.69C2.15 106.69 2.14622 106.69 2.15 106.69C2.15379 106.69 2.15 106.69 2.16136 106.69C2.2106 106.69 2.25983 106.69 2.30906 106.69C2.47948 106.69 2.6499 106.669 2.82032 106.669C3.08541 106.669 3.27855 106.874 3.28992 107.115C3.28992 107.147 3.27855 107.176 3.27098 107.209H58.6457C65.4587 107.209 69.6396 104.116 69.6396 96.7564V66.1339C69.6396 59.6566 66.3865 55.6816 58.9563 55.6816V53.6185C66.3865 53.6185 69.6396 49.6435 69.6396 43.1662L69.6434 43.1734ZM37.1275 78.2101C37.1275 79.3875 36.5064 80.2696 35.1166 80.2696H33.1018V61.8673H35.1166C36.5102 61.8673 37.1275 62.3066 37.1275 63.9268V78.2065V78.2101ZM37.1275 47.8865C37.1275 49.2115 36.5064 49.5067 35.1166 49.5067H33.1018V27.1294H35.1166C36.5102 27.1294 37.1275 28.0116 37.1275 29.1925V47.8865Z" fill="white"/>
</svg>
