<svg width="26" height="38" viewBox="0 0 26 38" fill="none" xmlns="http://www.w3.org/2000/svg">
<path d="M25.6643 16.5578C25.467 16.0108 25.2698 15.4678 25.0725 14.9168C24.8879 14.3979 24.6991 13.875 24.5144 13.3601C23.352 10.1263 22.1979 6.88835 21.069 3.73089L20.0745 0.939453L18.4 1.04001C15.773 1.19688 13.062 1.36179 10.3888 1.49854C10.3385 1.46637 10.2965 1.44224 10.2629 1.42615L10.0279 1.31755L9.77192 1.3095C7.98419 1.24917 6.17548 1.15263 4.42552 1.06414L3.07003 0.991744L0.942383 37.1517H10.9595V25.5918L18.3497 26.4767C18.4084 26.4887 18.5007 26.5008 18.6182 26.5008C18.8071 26.5008 18.9875 26.4646 19.1512 26.3962H19.3443L19.4953 26.175C19.6296 26.0584 19.7345 25.9095 19.8059 25.7326C21.2075 23.7174 22.4455 21.9476 23.587 20.3186C23.8975 19.8762 24.1997 19.4498 24.4976 19.0275C24.8459 18.5327 25.1859 18.0501 25.5216 17.5755L25.8615 17.0968L25.6643 16.5538V16.5578ZM15.752 16.6101C14.9924 17.6961 14.2664 18.7298 13.5236 19.7716C13.0368 19.7153 12.5542 19.655 12.0716 19.5986C11.7023 19.5544 11.333 19.5061 10.9637 19.4619V7.58822C11.2533 7.57213 12.5207 7.49169 12.8732 7.47158C13.3642 8.8311 13.8552 10.1906 14.3378 11.5542C14.8959 13.1148 15.4541 14.6714 16.0164 16.224L15.7478 16.6061L15.752 16.6101Z" fill="white"/>
</svg>
