<svg width="26" height="34" viewBox="0 0 26 34" fill="none" xmlns="http://www.w3.org/2000/svg">
<path d="M25.7568 19.1641L25.6771 20.4311C25.6435 20.9621 25.505 24.4011 25.505 24.9521C25.505 26.907 25.505 30.2977 25.4672 30.9815L25.4169 32.0635L24.288 32.1198C22.2695 32.2244 9.96099 32.9805 8.0096 33.1093L7.06537 33.1736L2.51631 20.8213L0.724385 15.9544L0.367676 14.985L0.812515 13.8427C1.37485 12.3907 1.94138 10.9226 2.51211 9.44238C3.43116 7.06925 4.36279 4.68004 5.28184 2.33105L5.55881 1.61107L6.36036 1.55878C8.09353 1.44213 20.6454 0.633662 22.6472 0.533106L23.839 0.46875L23.9523 1.61107C24.0068 2.13396 24.011 3.97212 23.9985 6.57452C23.9985 6.87618 23.9985 7.1135 23.9985 7.24221C23.9985 8.57759 24.0572 9.89287 24.1202 11.2886C24.1537 11.9844 24.1831 12.6803 24.2083 13.3802L24.2502 14.615H17.6281L17.5819 13.4686C17.5442 12.628 17.5148 11.7833 17.4896 10.9387C17.477 10.5726 17.4644 10.2106 17.4518 9.8446C15.7187 9.96125 13.9561 10.0779 12.2061 10.1744C11.8159 11.2041 11.4214 12.2298 11.0269 13.2474C10.9178 13.525 10.8129 13.7944 10.708 14.068C10.5821 14.3938 10.4562 14.7155 10.3345 15.0413C10.4184 15.2666 10.5023 15.4918 10.5821 15.7171C10.9724 16.7669 11.3626 17.8207 11.7445 18.8705C12.3362 20.4754 12.9447 22.1326 13.5532 23.7616C15.3494 23.657 17.1581 23.5444 18.9374 23.4237C18.9542 23.0416 18.9668 22.6595 18.9794 22.2733C19.0046 21.6177 19.0255 20.9621 19.0591 20.2984L19.1095 19.1561H25.7652L25.7568 19.1641Z" fill="white"/>
</svg>
