<svg width="266" height="252" viewBox="0 0 266 252" fill="none" xmlns="http://www.w3.org/2000/svg">
<path d="M140.852 6.30145C101.455 6.10941 61.0508 20.9963 35.8643 50.5637L30.2938 56.8655C24.7906 62.9184 19.026 69.1705 15.2551 76.3045C10.1402 85.8995 7.60884 96.5259 5.95115 107.131C1.6053 133.967 6.90693 161.749 19.6532 185.968C25.8285 194.375 32.8775 205.812 39.8741 214.788C50.1264 223.736 61.6481 231.617 74.2974 237.229C94.8468 246.504 117.92 247.926 140.344 248.723C144.1 248.887 147.759 248.929 151.111 248.019C154.74 246.86 158.399 245.686 162.17 245.039C165.986 244.313 169.846 243.936 173.662 243.652C174.737 243.339 178.187 242.649 179.957 241.817C186.61 239.157 191.531 234.476 197.9 230.842C201.947 228.566 206.136 226.176 209.944 223.573C261.184 189.197 278.798 126.356 247.862 73.5803C247.004 72.0796 245.226 69.0709 244.315 67.5915L244.278 67.5346L244.241 67.4279L243.569 65.607C237.379 50.5779 227.515 36.445 213.663 26.914C192.509 12.9803 166.419 6.24455 140.852 6.28723V6.30145ZM140.911 -0.000385301C167.636 0.447714 193.898 9.75822 215.119 25.0861C228.299 34.9727 238.013 48.5295 244.472 63.1745C244.958 64.1774 245.51 65.8702 245.936 66.9371L245.861 66.7735C246.78 68.2458 248.572 71.2403 249.445 72.741C281.576 126.292 265.694 191.971 212.536 227.129C208.615 229.768 204.277 232.136 200.088 234.384C194.04 237.698 188.268 242.756 181.435 245.288C179.061 246.227 176.537 246.767 174.028 247.272C170.242 247.485 166.493 247.791 162.82 248.424C159.116 248.986 155.547 250.11 151.977 251.156C147.983 252.151 143.943 251.995 140.157 251.774C136.386 251.547 132.6 251.426 128.8 251.184C105.973 249.932 82.6531 246.276 62.6189 235.159C55.9283 231.546 49.6112 227.342 43.6674 222.74C42.174 221.617 40.703 220.386 39.2767 219.248C38.2538 218.516 36.7529 217.178 35.9763 216.04C29.0244 206.787 22.6924 197.078 15.9944 187.703C2.73283 162.859 -2.88242 134.209 1.43356 106.533C3.08378 95.4661 5.70473 84.2849 10.9989 74.2205C14.9863 66.6099 20.7733 60.1943 26.5006 53.8355C32.0486 47.6617 37.634 40.6842 44.0333 35.2003C70.3772 12.8878 105.562 -0.341794 140.911 -0.000385301Z" fill="black"/>
</svg>
