<svg width="20" height="21" viewBox="0 0 20 21" fill="none" xmlns="http://www.w3.org/2000/svg">
<path d="M6.62543 20.39C6.62543 16.9902 6.43129 13.5903 7.1332 10.2331C7.56629 8.17044 7.98444 6.07219 8.49221 4.02373C8.79089 2.81458 9.04477 1.47028 9.448 0.303803C9.94082 0.289577 10.2992 1.9326 10.4635 2.34514C11.4044 4.735 12.5244 6.91148 13.8909 9.10219C15.1528 11.1364 18.3413 14.4652 19.2747 16.6701C16.8404 16.9546 12.502 15.1195 10.0603 15.0342C7.87991 14.9559 5.78912 14.5718 3.63113 14.3585C2.73508 14.2731 1.40594 14.5861 0.599497 14.266C0.562162 13.6401 1.09979 13.2702 1.57022 12.9004C2.83216 11.9117 4.26584 11.1222 5.52777 10.1335C6.78971 9.13775 7.76043 8.24156 9.21651 7.55163C9.84375 7.2529 10.4411 6.88303 11.0833 6.61275C12.3527 6.08641 13.7714 5.91571 15.0184 5.33247C16.7732 4.51451 17.1391 4.6212 19.088 3.68944C19.4987 3.49028 19.536 6.31402 18.3338 7.99972C16.3625 10.7594 14.4808 13.32 12.2855 15.9161C11.143 17.2676 9.97816 18.5407 9.0149 19.9775C8.46234 20.8026 7.92471 20.6959 6.62543 20.3758V20.39Z" fill="#212121"/>
</svg>
