<svg width="13" height="35" viewBox="0 0 13 35" fill="none" xmlns="http://www.w3.org/2000/svg">
<path d="M12.6731 31.8996C12.6283 31.5724 12.5013 30.9251 11.8965 29.1398C10.8661 25.9178 10.0596 22.8593 9.49957 20.0498C9.23075 18.6913 9.22329 18.3499 9.22329 18.293C9.22329 18.293 9.23076 18.1721 9.41744 17.852C9.61905 17.475 10.2313 16.337 9.61905 15.2914C9.29796 14.7438 8.73046 14.4308 8.25257 14.2388C8.08082 13.6271 7.69254 12.0338 6.84129 7.9227C5.61669 2.21832 5.48228 1.99072 5.33294 1.72755C5.03426 1.21544 4.54143 0.838464 3.86192 0.610858C3.53337 0.497055 3.21228 0.447266 2.9136 0.447266C2.54025 0.447266 2.18929 0.532618 1.87568 0.69621C1.35298 0.973605 0.92736 1.46438 0.561473 2.19699C0.26279 2.79445 0.105978 3.28523 0.0686426 3.73333C0.016373 4.08896 0.0835759 4.6153 1.58446 10.3268C2.71946 14.6513 3.00321 15.8391 3.06295 16.145C3.04054 16.1948 4.34728 17.4395 3.64538 17.8164C3.4363 17.9302 1.42765 19.1038 0.0537109 20.0569C0.666012 21.7426 -0.0732302 20.8393 0.583873 22.5108C0.792952 22.3472 2.61492 21.6644 2.8912 21.451C3.55577 20.9318 4.0038 21.0314 4.36969 21.4226C4.5713 22.1623 4.85504 23.3003 5.26573 25.0643C5.96764 28.0018 6.86369 30.4059 7.91655 32.2125C8.43178 33.0874 8.8126 33.5924 9.20089 33.9124C9.60411 34.2396 10.082 34.4103 10.5823 34.4103C10.9557 34.4103 11.329 34.3179 11.68 34.1258C12.0384 33.9338 12.8523 33.3363 12.6731 31.9138V31.8996Z" fill="black"/>
</svg>
