<svg width="26" height="36" viewBox="0 0 26 36" fill="none" xmlns="http://www.w3.org/2000/svg">
<path d="M23.9871 1.00555C22.1238 0.941196 10.5623 0.386127 8.34237 0.277527L7.54083 0.237305L7.19672 0.933151C6.03847 3.29019 4.86343 5.64722 3.6926 8.00426C3.05892 9.27529 2.42944 10.5463 1.79995 11.8173C1.55655 12.3121 1.31315 12.8068 1.06975 13.3016C0.784386 13.8767 0.499024 14.4519 0.213658 15.0271L0.0332031 15.3931L0.129722 15.7873C0.251422 16.278 0.377323 16.7687 0.494826 17.2594C0.624919 17.7662 0.750813 18.269 0.872513 18.7798C1.35092 20.7065 1.82933 22.6372 2.30354 24.5679C3.0841 27.7494 3.87305 30.927 4.6662 34.1006L4.88022 34.9493L5.79087 34.9814C7.65414 35.0458 19.2156 35.6009 21.4314 35.7095L22.5141 35.7658L22.6778 34.7361C22.8205 33.8432 23.3828 29.1975 23.45 28.3649L23.5423 27.1944L22.3211 27.13C20.4662 27.0335 18.6029 26.945 16.7355 26.8605C15.1744 26.7881 13.6132 26.7157 12.0605 26.6353C11.7584 25.4125 11.4562 24.1857 11.1499 22.9549C10.9023 21.9614 10.6547 20.9679 10.4113 19.9745C14.3518 20.1474 18.2546 20.3405 22.233 20.5416L23.4122 20.5979L23.4919 19.4677C23.5926 18.0357 24.2179 9.91884 24.4152 8.51106L24.4907 7.92381C24.818 5.33751 25.1244 2.85578 25.1496 2.19614L25.1915 1.04577L23.9913 1.00555H23.9871ZM17.5244 14.1824C16.2697 14.1221 15.0023 14.0658 13.7391 14.0095C12.7488 13.9652 11.7542 13.925 10.7596 13.8767C10.9233 13.5429 11.0869 13.2131 11.2464 12.8832C11.8591 11.6323 12.476 10.3854 13.0929 9.13853C14.0203 9.17875 14.9561 9.22299 15.8878 9.27126C16.576 9.30344 17.2642 9.33562 17.9483 9.3678C17.8098 10.9968 17.6713 12.5776 17.5244 14.1784V14.1824Z" fill="white"/>
</svg>
