<svg width="26" height="26" viewBox="0 0 26 26" fill="none" xmlns="http://www.w3.org/2000/svg">
<path d="M16.334 25.3043C15.871 20.8517 15.3782 16.3992 14.9451 11.9396C14.7883 10.3036 15.9382 9.52835 15.6171 7.91378C15.3184 6.413 14.8331 4.1156 14.6837 2.58637C14.6091 1.83954 14.7435 0.687293 14.3253 0.0400391C13.4442 0.224969 12.1599 2.47257 11.8238 3.09138C10.3528 5.76575 8.12017 8.39033 6.64916 11.086C5.62616 12.978 4.42396 15.062 3.66232 17.0678C3.27403 18.0778 2.93802 19.8275 3.04256 20.9087C3.63993 21.0296 4.22237 20.9584 4.79733 20.7095C6.5073 20.1832 8.23219 19.7066 9.97202 19.2798C12.1972 18.6753 14.3403 17.9711 16.4833 17.1318C17.8274 16.6055 19.037 15.88 20.3662 15.3536C22.0239 14.6922 23.7861 14.3863 25.3467 13.5043C25.5036 12.6579 23.6667 12.2098 23.0394 11.904C19.7464 10.2965 16.2892 9.09448 13.0037 7.50124C10.7411 6.39877 8.74741 5.10426 6.2086 4.6206C4.23729 4.24363 2.22118 3.21941 0.242406 3.59638C0.227471 5.05448 0.981644 5.95779 1.80302 7.20251C3.25911 9.40744 4.83466 11.5981 6.56703 13.611C9.5912 17.1389 12.1599 21.0794 16.3414 25.2972L16.334 25.3043Z" fill="#212121"/>
</svg>
