<svg width="68" height="89" viewBox="0 0 68 89" fill="none" xmlns="http://www.w3.org/2000/svg">
<path d="M46.6896 70.3524C47.4289 68.3395 48.6311 66.54 49.8407 64.7547C51.0877 62.9054 52.4243 61.2482 54.1194 59.7545C55.4784 58.5596 56.9569 57.45 58.2337 56.1768C59.0252 55.3873 59.7794 54.5765 60.5411 53.7656C62.1614 52.0301 63.9386 50.3018 65.2901 48.3671C66.3579 46.8379 67.2988 44.8463 67.3734 42.9899C67.4481 41.0339 66.6939 38.6441 65.1333 37.3211C64.3567 36.6667 63.3636 35.863 62.2809 35.799C61.1982 35.735 60.3469 36.4889 59.4733 37.0437C58.4204 37.7194 57.3899 38.4165 56.3894 39.1562C55.8443 39.5616 55.2992 39.9741 54.769 40.3938C54.6122 40.5218 54.0074 40.9415 54.4405 40.6641L55.1797 40.472C55.5232 41.2615 55.8667 42.051 56.2101 42.8477C56.3222 42.7196 56.479 42.6201 56.591 42.492C57.3825 41.6029 56.8971 40.1164 55.5605 40.1164C54.3434 40.1164 53.2084 41.7096 52.2526 42.3C52.1481 42.364 51.5208 42.5916 51.4685 42.677C51.4685 42.6841 51.4013 42.7836 51.5283 42.6912C51.7896 42.4991 51.6627 43.2317 51.6403 42.6698C51.603 41.8732 51.4611 41.0766 51.4909 40.2586C51.5283 39.1348 51.5432 38.1106 51.4163 36.9868C51.2893 35.863 51.603 34.7036 51.6254 33.5514C51.6552 32.2711 51.5059 30.9908 51.4685 29.7105C51.4237 28.3236 51.3864 26.9437 51.2893 25.5567C50.9309 20.5067 50.2514 15.4069 48.8849 10.5134C48.5564 9.33269 48.1233 8.18754 47.7051 7.03529C47.3168 5.96839 47.1078 4.75212 46.6149 3.72789C46.152 2.77479 45.1141 2.09909 43.9791 2.14888C42.6798 2.20578 41.8061 3.04507 40.9848 3.90571C40.2082 4.72367 39.4316 5.5843 38.9313 6.58719C38.3041 7.83902 38.3115 9.02684 38.3638 10.3783C38.4235 11.8079 38.4982 13.2091 38.67 14.6316C38.7446 15.2433 38.6998 15.855 38.767 16.4667C38.8044 16.7868 38.8641 17.0926 38.9612 17.3985C39.0284 17.5621 39.0881 17.7257 39.1553 17.8892C39.2449 18.1595 39.2599 18.2164 39.2076 18.0457L41.5 17.7612C41.1266 17.3558 41.164 16.6659 41.1341 16.1609C41.0893 15.2931 41.0221 14.4254 40.7533 13.5932C40.1634 11.751 39.4689 9.93015 38.8641 8.09508C38.3339 6.48761 37.4678 5.20022 36.3029 3.94839C35.2724 2.83881 34.3615 1.70789 32.868 1.16732C31.5912 0.704999 30.2321 0.456055 29.0897 1.29535C28.5745 1.67232 27.9024 1.94972 27.4395 2.36937C26.8048 2.95261 26.5658 3.82035 26.0132 4.46761C25.0575 5.5843 23.9374 6.35959 23.5342 7.83191C23.3176 8.63565 23.3176 9.47494 23.3326 10.3C23.3475 11.2531 23.1832 12.1209 23.0638 13.0668C22.9443 13.9986 23.1384 14.845 23.2803 15.7626C23.4296 16.7583 23.452 17.7754 23.6985 18.7641C23.915 19.6461 24.378 20.4783 24.5198 21.3816C24.6841 22.4271 24.5646 23.4585 24.9604 24.4685C25.61 26.1115 28.2982 25.4856 27.7755 23.7288C27.2528 21.9506 26.6256 20.1866 25.61 18.6076C24.5572 16.9788 23.6611 15.2504 22.5485 13.6572C22.0408 12.9317 21.4733 12.256 20.973 11.5234C20.5548 10.8975 20.0247 10.3996 19.3227 10.0653C17.8443 9.35403 15.9327 9.30424 14.611 10.3356C13.2893 11.3669 12.0722 12.825 11.1164 14.1764C10.1009 15.6132 9.21231 17.3487 9.08537 19.0984C9.01816 20.0302 9.33178 20.8695 9.50352 21.7728C9.6678 22.6548 9.46619 23.4727 9.46619 24.3476C9.47366 26.0688 10.2652 27.8541 10.9073 29.4403C11.206 30.18 11.6242 30.6707 12.117 31.2967C12.6322 31.951 12.7293 32.8686 13.013 33.6296C13.7075 35.4931 14.6483 37.2215 16.0895 38.6583C16.8959 39.462 18.7403 38.9072 18.5835 37.6767C18.128 34.1204 14.8948 31.5243 12.005 29.6038C10.5564 28.6436 9.48112 27.3207 7.77116 26.7374C5.98652 26.1257 4.48564 26.6592 3.09677 27.7901C1.79003 28.857 0.692362 30.4289 0.737165 32.1217C0.759566 32.9539 0.953712 33.8003 1.17026 34.6041C1.74522 36.745 2.6338 38.8148 3.53732 40.849C5.4713 45.1948 7.71142 49.4269 10.086 53.5665C10.6908 54.612 11.2658 55.7145 11.9826 56.6961C12.7368 57.7345 13.8942 58.5098 14.7454 59.4842C16.0372 60.9708 17.4709 62.3578 18.6208 63.9581C19.2107 64.7761 19.3899 65.6652 19.6812 66.5969C19.8305 67.0806 19.9873 67.5927 20.2561 68.0337C20.5249 68.4747 20.9132 68.7734 21.197 69.1788C21.6973 69.8972 21.8914 70.9357 22.2424 71.7465C22.6307 72.6427 23.0339 73.546 23.1011 74.5204C23.1832 75.6514 23.355 76.7609 23.5118 77.8848C23.6686 79.0014 23.5267 80.1039 23.6536 81.2135C23.7657 82.2164 24.3257 82.9063 24.6692 83.8167C25.0351 84.7841 24.7065 86.0643 24.6916 87.0743C24.6617 88.8667 27.5813 88.8667 27.6112 87.0743C27.6261 86.1853 27.7381 85.2962 27.7008 84.4071C27.6635 83.518 27.3797 82.7285 26.9242 81.9176C26.4687 81.1068 26.5583 80.4595 26.5583 79.5989C26.5583 78.6245 26.4015 77.6571 26.2522 76.6969C25.9759 74.9401 25.9909 73.2473 25.2964 71.5687C24.6542 70.0181 24.2435 68.3395 23.1086 67.0521C22.5859 66.4618 22.4664 65.7221 22.2498 64.9966C21.996 64.1288 21.6749 63.3037 21.1447 62.5569C20.1142 61.1202 18.9046 59.7759 17.6875 58.4813C17.105 57.8554 16.5823 57.1726 15.9775 56.5751C15.6564 56.2551 15.2905 55.9706 14.947 55.6647C14.7604 55.5011 14.163 54.8041 14.5662 55.3731C14.3646 55.0886 14.1779 54.797 13.9987 54.5054C11.9901 51.2477 10.183 47.8621 8.45813 44.4622C6.61376 40.8134 4.57524 36.9512 3.7688 32.9397C3.7464 32.8401 3.66426 32.2569 3.7016 32.5983C3.6792 32.4276 3.64933 32.2426 3.6568 32.0719C3.67173 31.3536 4.12722 30.7348 4.64245 30.2298C5.08301 29.7959 5.71771 29.1557 6.39722 29.2482C7.07672 29.3407 7.71889 29.7603 8.19678 30.2013C9.54832 31.4389 11.2135 32.2711 12.6024 33.4518C13.7523 34.4334 15.4697 36.1475 15.6639 37.6767C16.4927 37.3496 17.3216 37.0224 18.1579 36.6952C17.1423 35.6852 16.4404 34.4689 15.9327 33.1602C15.3951 31.7874 15.1636 30.5 14.1779 29.3264C13.4611 28.4729 13.2072 27.3207 12.8413 26.2893C12.6173 25.6634 12.3858 25.0091 12.3858 24.3405C12.3858 23.5367 12.5501 22.7685 12.4605 21.9648C12.3784 21.2322 12.1245 20.5494 12.0125 19.8239C11.893 19.0415 12.1693 18.252 12.4829 17.5336C13.0579 16.2391 13.924 15.0584 14.9172 14.0342C15.6415 13.2802 16.321 12.0995 17.5306 12.3698C17.9339 12.4623 18.2101 12.6187 18.4491 12.9175C18.9568 13.5576 19.4497 14.2476 19.9276 14.9162C21.0327 16.4525 21.8615 18.1666 22.9069 19.7386C23.8851 21.2109 24.4601 22.7899 24.9604 24.4614L27.7755 23.7216C27.4171 22.8254 27.5291 21.8795 27.3797 20.9406C27.2304 20.0017 26.8421 19.198 26.5882 18.3089C26.3194 17.37 26.2821 16.3814 26.1477 15.4211C26.0282 14.5392 25.8564 13.7639 26.0282 12.8748C26.1999 11.9857 26.2597 11.0753 26.2447 10.1435C26.2298 9.38248 26.1999 8.60008 26.6405 7.93149C27.0437 7.3198 27.6859 6.88593 28.1638 6.33825C28.7835 5.61987 29.142 4.78057 29.7319 4.05508L29.2092 4.55296C29.6871 4.31824 30.1201 4.05507 30.5383 3.735C30.613 3.6781 30.837 3.50029 30.8519 3.48606C30.8967 3.45761 31.0311 3.47184 30.8743 3.46472C30.6802 3.46472 31.0461 3.55719 31.0087 3.54296C31.2103 3.61409 31.4418 3.64965 31.6509 3.70655C31.9571 3.79902 32.2557 3.8986 32.5171 4.09064C33.1593 4.5743 33.7043 5.32825 34.242 5.91149C34.8543 6.57297 35.4442 7.27713 35.8026 8.1022C36.2282 9.09086 36.4896 10.1649 36.8405 11.1749C37.2139 12.2773 37.6694 13.3656 37.9979 14.4823C38.543 16.3245 37.9905 18.1595 39.4391 19.7243C40.0588 20.3929 41.2909 20.1866 41.7315 19.4398C42.075 18.8566 42.2243 18.2876 42.0974 17.6261C42.0152 17.1993 41.7837 16.8223 41.6941 16.4027C41.5821 15.9119 41.6717 15.3998 41.6344 14.9019C41.5821 14.2476 41.4328 13.6074 41.388 12.953C41.2984 11.7723 41.261 10.5703 41.2237 9.38959C41.1938 8.40804 41.5523 7.62564 42.1646 6.84325C42.3139 6.65832 43.8223 4.78057 44.0985 4.91571C43.8895 4.80902 44.0985 5.40649 44.1135 5.44205C44.2553 6.01818 44.457 6.58008 44.6511 7.13487C45.4799 9.47495 46.1744 11.7581 46.7195 14.1764C47.8171 19.0415 48.3697 24.0275 48.5116 29.0135C48.5489 30.2938 48.6535 31.5669 48.6833 32.8472C48.7057 34.0422 48.4369 35.2086 48.4369 36.3965C48.4369 36.9797 48.5863 37.5416 48.6385 38.1177C48.6833 38.637 48.6236 39.1562 48.5937 39.6754C48.534 40.5716 48.5415 41.4891 48.6311 42.3853C48.8401 44.4267 50.4306 46.0484 52.6707 45.2233C53.5519 44.8961 54.2986 44.3413 55.0229 43.7652C55.2992 43.5376 55.5754 43.3029 55.8517 43.0753C55.9861 42.9615 56.8822 42.3142 56.2848 42.7125L55.5456 42.9046C55.2021 42.1151 54.8586 41.3255 54.5151 40.5289C54.4031 40.657 54.2463 40.7494 54.1343 40.8846C53.3503 41.8021 53.8207 43.2175 55.1648 43.2602C55.7547 43.2744 56.1653 42.8903 56.591 42.556C57.3526 41.9586 58.1143 41.3611 58.9132 40.8063C59.7645 40.216 60.6456 39.6683 61.5043 39.0922C61.7657 38.9143 62.027 38.7294 62.2809 38.5516C61.9971 38.7508 61.9747 38.452 62.2884 38.7223C62.4601 38.8717 62.6766 38.9784 62.8559 39.1206C64.2522 40.2017 64.7749 42.3711 64.2447 43.9857C63.8788 45.1024 63.1023 46.5676 62.49 47.3215C61.1758 48.9575 59.3165 50.8992 57.7334 52.5778C55.7995 54.6192 53.634 56.376 51.5208 58.2466C49.7735 59.7972 48.407 61.7034 47.1302 63.6096C45.8533 65.5158 44.6586 67.4504 43.8671 69.6056C43.2473 71.2984 46.0624 72.0239 46.6821 70.3453L46.6896 70.3524Z" fill="black"/>
</svg>
