<svg width="26" height="37" viewBox="0 0 26 37" fill="none" xmlns="http://www.w3.org/2000/svg">
<path d="M23.9549 1.47626C22.079 1.4119 10.5301 0.85683 8.31434 0.74823L7.5128 0.708008L7.16868 1.40386C6.01463 3.74078 4.85639 6.08173 3.68974 8.41865C2.51891 10.7757 1.34387 13.1367 0.181428 15.4938L0.000976562 15.8598L0.101694 16.254C0.831894 19.1741 1.5537 22.1023 2.27551 25.0265C3.06026 28.2081 3.84502 31.3977 4.64236 34.5673L4.85639 35.4159L5.76704 35.4481C7.65129 35.5125 19.1918 36.0676 21.4076 36.1762L22.4903 36.2284L22.654 35.2028C22.7966 34.3058 23.359 29.6641 23.4261 28.8315L23.5184 27.6611L22.2972 27.5967C20.434 27.5002 18.5623 27.4117 16.6907 27.3272C15.1379 27.2508 13.5852 27.1824 12.0367 27.102C11.7387 25.8832 11.4324 24.6645 11.1302 23.4417C10.8826 22.4402 10.6308 21.4346 10.3832 20.4411C14.2818 20.6101 18.2056 20.8072 22.2049 21.0083L23.3842 21.0646L23.4639 19.9343C23.5646 18.4984 24.1941 10.3735 24.3871 8.97774L24.4585 8.42669C24.7732 5.94899 25.0963 3.33051 25.1215 2.66684L25.1635 1.51648L23.9633 1.47626H23.9549ZM17.4964 14.6531C16.2332 14.5928 14.9617 14.5365 13.6901 14.4802C12.7039 14.4359 11.7177 14.3917 10.7316 14.3474C10.891 14.0216 11.0505 13.6958 11.21 13.37C11.8269 12.1111 12.4437 10.8602 13.0648 9.60924C13.9965 9.64946 14.9365 9.6937 15.8723 9.74197C16.5522 9.77415 17.2362 9.80632 17.916 9.8385C17.7776 11.4715 17.6433 13.0523 17.4922 14.6531H17.4964Z" fill="white"/>
</svg>
