<svg width="22" height="38" viewBox="0 0 22 38" fill="none" xmlns="http://www.w3.org/2000/svg">
<path d="M11.5548 2.8826C11.5697 2.61232 11.6892 2.24957 11.9132 1.80147C12.1372 1.35337 12.3687 1.06176 12.6076 0.933727C12.7943 0.834149 13.0482 0.84126 13.3767 0.94795C13.6978 1.05464 13.9218 1.21112 14.0413 1.41739C14.1608 1.62366 14.6088 3.55119 15.3929 7.20712C16.2889 11.5316 16.834 13.8575 17.0282 14.1847C17.1028 14.3127 17.2596 14.4052 17.5135 14.4763C17.9541 14.6399 18.2304 14.8106 18.3349 14.9884C18.4842 15.2444 18.4096 15.6428 18.1034 16.2047C17.8794 16.5887 17.7599 16.9373 17.745 17.236C17.7301 17.5418 17.8346 18.2318 18.0437 19.3129C18.6112 22.1864 19.4251 25.2662 20.4779 28.5523C20.9036 29.8183 21.1425 30.6576 21.1948 31.0773C21.2471 31.4969 21.1724 31.7601 20.9558 31.8739C20.6646 32.0304 20.4033 32.009 20.1643 31.817C19.9329 31.625 19.6118 31.1911 19.216 30.5083C18.2229 28.8155 17.394 26.5607 16.7145 23.737C15.9828 20.5861 15.5049 18.815 15.2809 18.438C15.2211 18.3385 15.1688 18.2816 15.1315 18.2673C15.0867 18.2531 15.0046 18.2887 14.8702 18.3527C14.2877 18.6657 13.2647 19.384 11.8087 20.5221C10.3526 21.6601 9.56854 22.3429 9.45653 22.5634C9.34452 22.791 9.36692 23.0257 9.5088 23.2818C9.70294 23.609 10.2555 25.3871 11.1665 28.6092C12.3015 32.4429 13.0333 34.655 13.3767 35.2382C13.5261 35.4943 13.6456 35.6081 13.7426 35.5938C13.9218 35.5938 14.0861 35.7432 14.2504 36.0206C14.4445 36.3478 14.4669 36.6038 14.3251 36.7745C14.0488 37.0164 13.78 37.2155 13.5186 37.3507C13.093 37.5783 12.6972 37.5783 12.3239 37.3649C11.9505 37.1444 11.5398 36.6465 11.0769 35.8641C10.5617 34.9822 9.80002 32.8839 8.79943 29.5694C7.82124 26.4114 7.25374 24.6972 7.08946 24.4198C6.96999 24.2207 6.61904 24.2704 6.0366 24.5834C5.05841 25.1026 4.42371 25.124 4.13996 24.6474C3.94582 24.3202 3.93089 23.993 4.09516 23.6801C4.25944 23.36 4.64026 22.9759 5.24509 22.5207C5.61098 22.2576 5.81259 21.9731 5.83499 21.6601C5.79766 21.4823 5.04348 19.5761 3.55753 15.9415C2.07158 12.3069 1.2278 10.3154 1.02619 9.95972C0.951518 9.8317 0.981387 9.5543 1.10833 9.12043C1.21287 8.70078 1.47421 8.38071 1.89984 8.1531C2.22092 7.9824 2.53454 7.92549 2.84069 7.97528C3.14684 8.02507 3.38579 8.18867 3.55007 8.46606C3.62474 8.59409 4.28931 10.23 5.53631 13.3738C6.94012 16.9657 7.7615 18.9644 8.00045 19.3698C8.10499 19.5476 8.26179 19.6614 8.46341 19.7183C8.70982 19.7823 8.90397 19.7823 9.03091 19.7183C9.16531 19.6472 9.71788 19.256 10.6886 18.5376C11.8759 17.7126 12.6076 17.2218 12.8989 17.0653C14.0413 16.4607 14.5864 15.7921 14.5416 15.0524C14.5416 14.8817 14.0413 12.8617 13.0183 8.97817C12.0028 5.10176 11.51 3.06753 11.5398 2.8826H11.5548Z" fill="black"/>
</svg>
