<svg width="157" height="149" viewBox="0 0 157 149" fill="none" xmlns="http://www.w3.org/2000/svg">
<path d="M126.764 125.362C121.709 130.419 115.526 134.025 108.656 136.415C101.54 138.897 94.1402 139.673 86.8524 141.415C78.7207 143.364 70.477 143.791 62.2483 142.063C54.2959 140.391 47.3888 136.351 40.5415 132.332C29.5425 125.867 20.1787 117.033 14.4216 105.909C11.5393 100.347 9.65763 94.3863 8.96319 88.2124C8.20901 81.4767 9.35147 74.7908 9.30667 68.0409C9.28427 64.4276 9.85177 62.1373 11.2182 58.8086C12.5997 55.4585 12.9282 52.1369 13.8168 48.673C15.3177 42.8549 18.1477 37.5061 21.941 32.7406C29.7366 22.9322 41.1538 15.8338 53.0339 11.2888C56.7973 9.8449 60.7474 9.20475 64.6676 8.23032C67.5425 7.51193 71.1789 6.56595 74.0986 6.4806C78.2876 6.35968 82.499 6.4806 86.6881 6.4806C88.4727 6.4806 90.2797 6.35257 92.0569 6.39524C93.8341 6.43792 95.5739 6.95715 97.3735 7.17053C105.632 8.13785 113.405 9.78088 119.946 14.9731C125.875 19.6746 131.177 24.9167 135.948 30.6851C147.575 44.754 149.546 60.978 146.552 78.2689C145.111 86.5765 143.221 95.4745 139.413 103.128C137.517 106.947 135.739 110.994 133.477 114.629C132.372 116.407 130.938 117.887 129.743 119.579C128.339 121.564 127.354 123.861 126.167 125.967C123.979 129.871 131.827 131.216 133.537 128.186C134.612 126.265 135.538 124.224 136.74 122.375C137.882 120.618 139.391 119.124 140.533 117.353C142.841 113.79 144.327 109.821 146.372 106.129C150.487 98.7037 152.578 89.9764 154.146 81.7612C157.237 65.5799 157.476 48.922 148.18 34.4192C143.819 27.6195 138.009 21.3817 131.924 15.9476C129.026 13.3586 125.965 10.6486 122.672 8.50771C119.05 6.15341 114.496 4.66686 110.284 3.58573C102.347 1.55151 94.3792 1.01805 86.2326 1.01805C81.7822 1.01805 77.3094 0.890025 72.8665 1.01094C71.1565 1.05362 69.6855 1.40925 68.0726 1.90714C66.1088 2.51172 64.0479 2.63975 62.0392 3.13052C58.1041 4.09073 54.042 4.69531 50.2636 6.16052C46.5824 7.59017 42.9608 9.13363 39.4588 10.9402C33.164 14.1979 27.1605 18.1098 21.941 22.79C16.9007 27.3137 12.5623 32.4988 9.44854 38.4023C6.02862 44.8962 5.6254 51.8951 2.89991 58.5312C2.29508 60.0035 1.44383 61.5683 1.09288 63.126C0.697122 64.8686 1.03314 66.91 1.04807 68.6739C1.07794 72.6499 0.689653 76.5263 0.473108 80.4881C0.0997536 87.2807 1.16755 94.0449 3.3778 100.503C7.82819 113.512 17.2591 124.537 28.6987 132.61C44.4094 143.706 62.4574 150.989 82.29 147.973C87.2705 147.219 92.1764 146.039 97.1271 145.121C101.533 144.31 105.908 143.286 110.157 141.906C118.67 139.132 126.682 135.042 132.932 128.783C136.441 125.27 129.34 122.78 126.764 125.362Z" fill="black"/>
</svg>
