<svg width="101" height="4" viewBox="0 0 101 4" fill="none" xmlns="http://www.w3.org/2000/svg">
<path fill-rule="evenodd" clip-rule="evenodd" d="M99.4327 3.88148L98.3679 2.04445L97.7595 2.75556V3.88148H96.9685V0.0888852H97.7595V1.3037C97.7595 1.3037 97.7595 1.42222 97.7595 1.48148C97.7595 1.54074 97.7595 1.6 97.7595 1.65926C97.7595 1.71852 97.7595 1.74815 97.7595 1.77778C97.7595 1.74815 97.8203 1.68889 97.8811 1.6C97.942 1.51111 98.0028 1.45185 98.0637 1.39259L99.1589 0.0888852H100.102L98.9764 1.39259L100.406 3.88148H99.4631H99.4327ZM95.3865 1.33333C95.3865 1.15555 95.3256 1.03704 95.2344 0.977777C95.1431 0.918518 94.991 0.859256 94.8389 0.859256H93.8349V1.83703H94.8389C95.2039 1.83703 95.3865 1.65926 95.3865 1.33333ZM95.2952 3.88148L94.5955 2.51852H93.8045V3.88148H93.0135V0.0888852H94.8389C95.0214 0.0888852 95.2039 0.0888866 95.356 0.148146C95.5082 0.207405 95.6603 0.266664 95.782 0.385183C95.9037 0.474071 95.9949 0.622223 96.0558 0.770371C96.1166 0.918519 96.147 1.0963 96.147 1.3037C96.147 1.6 96.0862 1.80741 95.9645 2.01482C95.8428 2.19259 95.6603 2.34074 95.4169 2.42963L96.147 3.91111H95.2648L95.2952 3.88148ZM91.4315 1.98518C91.4315 1.80741 91.4315 1.65926 91.3707 1.51111C91.3402 1.36296 91.2794 1.24444 91.2185 1.12592C91.1577 1.0074 91.0664 0.918515 90.9447 0.859256C90.823 0.799997 90.7013 0.770371 90.5492 0.770371C90.3971 0.770371 90.245 0.799997 90.1537 0.859256C90.032 0.918515 89.9408 1.0074 89.8799 1.12592C89.8191 1.24444 89.7582 1.36296 89.7278 1.51111C89.6974 1.65926 89.667 1.80741 89.667 1.98518C89.667 2.16296 89.667 2.31111 89.7278 2.45926C89.7582 2.60741 89.8191 2.72592 89.8799 2.84444C89.9408 2.96296 90.032 3.05185 90.1537 3.11111C90.2754 3.17037 90.3971 3.2 90.5492 3.2C90.7013 3.2 90.8535 3.17037 90.9447 3.11111C91.0664 3.05185 91.1577 2.96296 91.2185 2.84444C91.2794 2.72592 91.3402 2.60741 91.3707 2.45926C91.4011 2.31111 91.4315 2.16296 91.4315 1.98518ZM92.2225 1.98518C92.2225 2.28148 92.1921 2.54815 92.1008 2.78519C92.0095 3.02222 91.9183 3.22963 91.7661 3.40741C91.614 3.58518 91.4315 3.7037 91.249 3.82222C91.036 3.91111 90.7926 3.97037 90.5492 3.97037C90.3058 3.97037 90.032 3.91111 89.8495 3.82222C89.6366 3.73333 89.454 3.58518 89.3323 3.40741C89.1802 3.22963 89.0889 3.02222 88.9977 2.78519C88.9064 2.54815 88.876 2.28148 88.876 1.98518C88.876 1.68889 88.9064 1.42222 88.9977 1.18518C89.0585 0.948147 89.1802 0.740742 89.3323 0.562964C89.4844 0.385187 89.667 0.266664 89.8495 0.148146C90.0625 0.059257 90.3058 0 90.5492 0C90.7926 0 91.0664 0.059257 91.249 0.148146C91.4619 0.237035 91.6444 0.385187 91.7661 0.562964C91.9183 0.740742 92.0095 0.948147 92.1008 1.18518C92.1616 1.42222 92.2225 1.68889 92.2225 1.98518ZM87.5678 3.88148H86.8072L86.3204 1.92592C86.3204 1.92592 86.2596 1.68888 86.2292 1.57037C86.2292 1.45185 86.1988 1.36296 86.1683 1.27407C86.1683 1.33333 86.1683 1.45185 86.1075 1.57037C86.1075 1.68888 86.0466 1.80741 86.0162 1.92592L85.5294 3.88148H84.7993L83.9779 0.0888852H84.7993L85.134 1.92592C85.134 1.92592 85.1644 2.13333 85.1948 2.25185C85.1948 2.37037 85.2252 2.45925 85.2252 2.54814C85.2252 2.45925 85.2557 2.37037 85.2861 2.25185C85.3165 2.13333 85.3469 2.01481 85.3469 1.92592L85.8033 0.0888852H86.4726L86.9289 1.92592C86.9289 1.92592 86.9898 2.13333 86.9898 2.25185C86.9898 2.37037 87.0506 2.45925 87.0506 2.54814C87.0506 2.45925 87.0506 2.37037 87.081 2.25185C87.081 2.13333 87.1115 2.01481 87.1419 1.92592L87.4765 0.0888852H88.2675L87.4461 3.88148H87.5678ZM79.2319 3.88148V0.0888852H80.0229V3.14074H81.97V3.88148H79.2319ZM78.2584 2.22222C78.2584 2.78518 78.1063 3.2 77.8325 3.4963C77.5587 3.79259 77.1632 3.94074 76.6764 3.94074C76.433 3.94074 76.2201 3.91111 76.0375 3.82222C75.855 3.73333 75.6724 3.64444 75.5507 3.4963C75.3986 3.34815 75.3074 3.17037 75.2465 2.96296C75.1553 2.75555 75.1248 2.51852 75.1248 2.22222V0.0888852H75.9158V2.19259C75.9158 2.48889 75.9767 2.75555 76.1288 2.9037C76.2809 3.08148 76.4634 3.17037 76.7068 3.17037C76.9502 3.17037 77.1632 3.08148 77.2848 2.9037C77.4065 2.72592 77.4978 2.48889 77.4978 2.19259V0.0592606H78.2888V2.16296L78.2584 2.22222ZM72.4476 0.829626V1.54074H73.6341V2.28148H72.4476V3.88148H71.6566V0.0888852H74.4251V0.829626H72.4172H72.4476ZM70.0746 1.98518C70.0746 1.6 69.9834 1.3037 69.8008 1.12592C69.6183 0.948145 69.3141 0.829626 68.9186 0.829626H68.4927V3.14074H68.8881C69.1011 3.14074 69.2532 3.14074 69.4053 3.05185C69.5574 2.99259 69.6791 2.9037 69.7704 2.81481C69.8617 2.72592 69.9529 2.57778 69.9834 2.45926C70.0442 2.31111 70.0442 2.16296 70.0442 1.98518H70.0746ZM70.8656 1.98518C70.8656 2.31111 70.8048 2.6074 70.6831 2.84444C70.5614 3.08148 70.4093 3.28889 70.2268 3.43704C70.0442 3.58518 69.8312 3.7037 69.5879 3.76296C69.3445 3.82222 69.1011 3.88148 68.8577 3.88148H67.7016V0.0888852H68.9186C69.1924 0.0888852 69.4662 0.118517 69.6791 0.177776C69.9225 0.237035 70.1051 0.355556 70.2876 0.503704C70.4701 0.651852 70.5918 0.859256 70.6831 1.09629C70.7744 1.33333 70.8352 1.62963 70.8352 1.98518H70.8656ZM66.0284 3.88148L64.5985 1.8074C64.5985 1.8074 64.5072 1.65926 64.4464 1.57037C64.3856 1.48148 64.3551 1.42222 64.3247 1.36296C64.3247 1.39259 64.3247 1.45185 64.3247 1.51111C64.3247 1.57037 64.3247 1.65926 64.3247 1.74815C64.3247 1.83704 64.3247 1.8963 64.3247 1.98518C64.3247 2.07407 64.3247 2.13333 64.3247 2.19259V3.85185H63.5641V0.0592606H64.2943L65.6633 2.07407C65.6633 2.07407 65.7546 2.22222 65.8154 2.31111C65.8763 2.4 65.9067 2.45926 65.9371 2.51852C65.9371 2.48889 65.9371 2.42963 65.9371 2.37037C65.9371 2.31111 65.9371 2.22222 65.9371 2.13333C65.9371 2.04444 65.9371 1.98518 65.9371 1.89629C65.9371 1.80741 65.9371 1.74815 65.9371 1.68889V0.0888852H66.6977V3.88148H65.998H66.0284ZM61.7388 3.88148V0.0888852H62.5298V3.88148H61.7388ZM59.9134 3.88148V2.48889C59.9134 2.48889 59.9134 2.37037 59.9134 2.28148C59.9134 2.19259 59.9134 2.13333 59.9134 2.04445C59.9134 1.95556 59.9134 1.89629 59.9134 1.8074C59.9134 1.74814 59.9134 1.68889 59.9134 1.65926C59.9134 1.71852 59.8526 1.83704 59.7917 1.95555C59.7309 2.07407 59.7004 2.19259 59.6396 2.31111L58.8486 4L58.0576 2.31111C58.0576 2.31111 57.9663 2.1037 57.9055 1.95555C57.8446 1.83704 57.8142 1.74815 57.7838 1.65926C57.7838 1.68889 57.7838 1.74814 57.7838 1.8074C57.7838 1.86666 57.7838 1.95556 57.7838 2.04445C57.7838 2.13333 57.7838 2.22222 57.7838 2.28148C57.7838 2.37037 57.7838 2.42963 57.7838 2.48889V3.88148H57.0232V0.0888852H57.7838L58.6052 1.8074C58.6052 1.8074 58.6661 1.92593 58.6965 1.98518C58.6965 2.04444 58.7573 2.1037 58.7573 2.16296C58.7573 2.22222 58.7878 2.28148 58.8182 2.31111C58.8182 2.37037 58.8486 2.4 58.879 2.42963C58.879 2.37037 58.9399 2.25185 59.0007 2.13333C59.0616 2.01481 59.092 1.8963 59.1528 1.77778L59.9438 0.0592606H60.7044V3.85185H59.9134V3.88148ZM53.8288 1.33333C53.8288 1.15555 53.768 1.03704 53.6767 0.977777C53.5854 0.918518 53.4333 0.859256 53.2812 0.859256H52.2773V1.83703H53.2812C53.6463 1.83703 53.8288 1.65926 53.8288 1.33333ZM53.7375 3.88148L53.0378 2.51852H52.2468V3.88148H51.4558V0.0888852H53.2812C53.4637 0.0888852 53.6463 0.0888866 53.7984 0.148146C53.9505 0.207405 54.1026 0.266664 54.2243 0.385183C54.346 0.474071 54.4373 0.622223 54.4981 0.770371C54.559 0.918519 54.5894 1.0963 54.5894 1.3037C54.5894 1.6 54.5285 1.80741 54.4069 2.01482C54.2852 2.19259 54.1026 2.34074 53.8592 2.42963L54.5894 3.91111H53.7071L53.7375 3.88148ZM49.8738 1.98518C49.8738 1.80741 49.8738 1.65926 49.813 1.51111C49.7826 1.36296 49.7217 1.24444 49.6609 1.12592C49.6 1.0074 49.5088 0.918515 49.3871 0.859256C49.2654 0.799997 49.1437 0.770371 48.9916 0.770371C48.8395 0.770371 48.6874 0.799997 48.5961 0.859256C48.4744 0.918515 48.3831 1.0074 48.3223 1.12592C48.2614 1.24444 48.2006 1.36296 48.1702 1.51111C48.1397 1.65926 48.1093 1.80741 48.1093 1.98518C48.1093 2.16296 48.1093 2.31111 48.1702 2.45926C48.2006 2.60741 48.2614 2.72592 48.3223 2.84444C48.3831 2.96296 48.4744 3.05185 48.5961 3.11111C48.7178 3.17037 48.8395 3.2 48.9916 3.2C49.1437 3.2 49.2958 3.17037 49.3871 3.11111C49.5088 3.05185 49.6 2.96296 49.6609 2.84444C49.7217 2.72592 49.7826 2.60741 49.813 2.45926C49.8434 2.31111 49.8738 2.16296 49.8738 1.98518ZM50.6648 1.98518C50.6648 2.28148 50.6344 2.54815 50.5431 2.78519C50.4823 3.02222 50.3606 3.22963 50.2085 3.40741C50.0564 3.58518 49.8738 3.7037 49.6913 3.82222C49.4784 3.91111 49.235 3.97037 48.9916 3.97037C48.7482 3.97037 48.4744 3.91111 48.2919 3.82222C48.1093 3.73333 47.8964 3.58518 47.7747 3.40741C47.6226 3.22963 47.5313 3.02222 47.44 2.78519C47.3487 2.54815 47.3183 2.28148 47.3183 1.98518C47.3183 1.68889 47.3487 1.42222 47.44 1.18518C47.5009 0.948147 47.6226 0.740742 47.7747 0.562964C47.9268 0.385187 48.1093 0.266664 48.2919 0.148146C48.4744 0.0296274 48.7482 0 48.9916 0C49.235 0 49.5088 0.059257 49.6913 0.148146C49.9043 0.237035 50.0868 0.385187 50.2085 0.562964C50.3606 0.740742 50.4519 0.948147 50.5431 1.18518C50.604 1.42222 50.6648 1.68889 50.6648 1.98518ZM45.0062 0.829626V1.54074H46.1927V2.28148H45.0062V3.88148H44.2152V0.0888852H46.9837V0.829626H44.9758H45.0062ZM40.9295 3.88148L39.4996 1.8074C39.4996 1.8074 39.4084 1.65926 39.3475 1.57037C39.2867 1.48148 39.2563 1.42222 39.2258 1.36296C39.2258 1.39259 39.2258 1.45185 39.2258 1.51111C39.2258 1.57037 39.2258 1.65926 39.2258 1.74815C39.2258 1.83704 39.2258 1.8963 39.2258 1.98518C39.2258 2.07407 39.2258 2.13333 39.2258 2.19259V3.85185H38.4653V0.0592606H39.1954L40.5644 2.07407C40.5644 2.07407 40.6557 2.22222 40.7166 2.31111C40.7774 2.4 40.8078 2.45926 40.8383 2.51852C40.8383 2.48889 40.8383 2.42963 40.8383 2.37037C40.8383 2.31111 40.8383 2.22222 40.8383 2.13333C40.8383 2.04444 40.8383 1.98518 40.8383 1.89629C40.8383 1.80741 40.8383 1.74815 40.8383 1.68889V0.0888852H41.5988V3.88148H40.8991H40.9295ZM37.4917 2.22222C37.4917 2.78518 37.3396 3.2 37.0658 3.4963C36.792 3.79259 36.3965 3.94074 35.9097 3.94074C35.6664 3.94074 35.4534 3.91111 35.2709 3.82222C35.0883 3.73333 34.9058 3.64444 34.7841 3.4963C34.632 3.34815 34.5407 3.17037 34.4494 2.96296C34.3886 2.75555 34.3278 2.51852 34.3278 2.22222V0.0888852H35.1188V2.19259C35.1188 2.48889 35.1796 2.75555 35.3317 2.9037C35.4838 3.08148 35.6664 3.17037 35.9097 3.17037C36.1531 3.17037 36.3661 3.08148 36.4878 2.9037C36.6399 2.72592 36.7007 2.48889 36.7007 2.19259V0.0592606H37.4917V2.16296V2.22222ZM31.681 0.829626V1.54074H32.8675V2.28148H31.681V3.88148H30.89V0.0888852H33.6889V0.829626H31.681ZM28.4561 2.75556C28.4561 2.93333 28.4561 3.11111 28.3649 3.25926C28.304 3.40741 28.2128 3.52592 28.0911 3.64444C27.9694 3.76296 27.8173 3.82222 27.6043 3.88148C27.4218 3.94074 27.1784 3.97037 26.9046 3.97037C26.5699 3.97037 26.2961 3.91111 26.0223 3.79259C25.7485 3.67407 25.5355 3.49629 25.4139 3.28888L25.9615 2.81481C26.1136 2.96296 26.2657 3.08148 26.4178 3.14074C26.6003 3.2 26.7525 3.22963 26.9654 3.22963C27.2088 3.22963 27.3609 3.2 27.4826 3.14074C27.6043 3.08148 27.6347 2.96296 27.6347 2.81481C27.6347 2.75555 27.6347 2.69629 27.6043 2.66666C27.6043 2.60741 27.5434 2.57777 27.4826 2.54814C27.4218 2.51851 27.3305 2.45926 27.2088 2.42963C27.0871 2.4 26.935 2.37037 26.7525 2.31111C26.5699 2.28148 26.4178 2.22222 26.2657 2.16296C26.1136 2.1037 25.9919 2.04444 25.8702 1.95555C25.7485 1.86667 25.6877 1.77778 25.6268 1.62963C25.566 1.51111 25.5355 1.33333 25.5355 1.15555C25.5355 0.977776 25.566 0.829628 25.6572 0.68148C25.7181 0.533332 25.8398 0.414811 25.9615 0.325922C26.0832 0.237033 26.2353 0.148145 26.4178 0.118516C26.6003 0.0592563 26.7525 0.0296303 26.9654 0.0296303C27.2696 0.0296303 27.5434 0.0888873 27.7564 0.177776C27.9694 0.296295 28.1823 0.414812 28.3649 0.622219L27.8173 1.15555C27.8173 1.15555 27.5435 0.918515 27.4218 0.859256C27.2697 0.799997 27.1175 0.770371 26.935 0.770371C26.8437 0.770371 26.7525 0.770371 26.6612 0.770371C26.6003 0.770371 26.5395 0.829626 26.4787 0.859256C26.4482 0.888886 26.3874 0.918518 26.3874 0.977777C26.3874 1.00741 26.3874 1.06666 26.3874 1.09629C26.3874 1.15555 26.3874 1.21481 26.4178 1.24444C26.4178 1.27407 26.4787 1.33333 26.5395 1.36296C26.6003 1.39259 26.6916 1.42222 26.7829 1.45185C26.8741 1.45185 26.9958 1.51111 27.1784 1.54074C27.3305 1.57037 27.4826 1.62963 27.6347 1.65926C27.7868 1.71852 27.939 1.77777 28.0606 1.86666C28.1823 1.95555 28.2736 2.07407 28.3649 2.19259C28.4561 2.31111 28.4866 2.48889 28.4866 2.6963L28.4561 2.75556ZM24.8662 2.75556C24.8662 2.93333 24.8662 3.11111 24.775 3.25926C24.7141 3.40741 24.6229 3.52592 24.5012 3.64444C24.3795 3.76296 24.2274 3.82222 24.0144 3.88148C23.8319 3.94074 23.5885 3.97037 23.3147 3.97037C22.98 3.97037 22.7062 3.91111 22.4324 3.79259C22.1586 3.67407 21.9456 3.49629 21.824 3.28888L22.3716 2.81481C22.5237 2.96296 22.6758 3.08148 22.8279 3.14074C23.0104 3.2 23.1626 3.22963 23.3755 3.22963C23.6189 3.22963 23.771 3.2 23.8927 3.14074C24.0144 3.08148 24.0448 2.96296 24.0448 2.81481C24.0448 2.75555 24.0448 2.69629 24.0144 2.66666C24.0144 2.60741 23.9536 2.57777 23.8927 2.54814C23.8319 2.51851 23.7406 2.45926 23.6189 2.42963C23.4972 2.4 23.3451 2.37037 23.1626 2.31111C22.98 2.28148 22.8279 2.22222 22.6758 2.16296C22.5237 2.1037 22.402 2.04444 22.2803 1.95555C22.1586 1.86667 22.0978 1.77778 22.0369 1.62963C21.9761 1.51111 21.9456 1.33333 21.9456 1.15555C21.9456 0.977776 21.9761 0.829628 22.0673 0.68148C22.1282 0.533332 22.2499 0.414811 22.3716 0.325922C22.4933 0.237033 22.6454 0.148145 22.8279 0.118516C23.0104 0.0592563 23.1626 0.0296303 23.3755 0.0296303C23.6797 0.0296303 23.9535 0.0888873 24.1665 0.177776C24.3795 0.296295 24.5924 0.414812 24.775 0.622219L24.2274 1.15555C24.2274 1.15555 23.9536 0.918515 23.8319 0.859256C23.6798 0.799997 23.5276 0.770371 23.3451 0.770371C23.2538 0.770371 23.1626 0.770371 23.0713 0.770371C23.0104 0.770371 22.9496 0.829626 22.8888 0.859256C22.8583 0.888886 22.8279 0.918518 22.7975 0.977777C22.7975 1.00741 22.7975 1.06666 22.7975 1.09629C22.7975 1.15555 22.7975 1.21481 22.8279 1.24444C22.8279 1.27407 22.8888 1.33333 22.9496 1.36296C23.0104 1.39259 23.1017 1.42222 23.193 1.45185C23.2842 1.45185 23.4059 1.51111 23.5885 1.54074C23.7406 1.57037 23.8927 1.62963 24.0448 1.65926C24.1969 1.71852 24.3491 1.77777 24.4707 1.86666C24.5924 1.95555 24.6837 2.07407 24.775 2.19259C24.8662 2.34074 24.8967 2.48889 24.8967 2.6963L24.8662 2.75556ZM18.5079 3.88148V0.0888852H21.2155V0.829626H19.2989V1.48148H20.4245V2.22222H19.2989V3.14074H21.3068V3.88148H18.5383H18.5079ZM15.0396 3.88148V0.0888852H15.8306V3.14074H17.7777V3.88148H15.0396ZM13.4881 1.98518C13.4881 1.6 13.3968 1.3037 13.2143 1.12592C13.0317 0.948145 12.7275 0.829626 12.332 0.829626H11.9061V3.14074H12.3016C12.5146 3.14074 12.6667 3.14074 12.8188 3.05185C12.9709 2.99259 13.0926 2.9037 13.1839 2.81481C13.2751 2.72592 13.3664 2.57778 13.3968 2.45926C13.4577 2.31111 13.4577 2.16296 13.4577 1.98518H13.4881ZM14.2791 1.98518C14.2791 2.31111 14.2182 2.6074 14.0965 2.84444C13.9749 3.08148 13.8227 3.28889 13.6402 3.43704C13.4577 3.58518 13.2447 3.7037 13.0013 3.76296C12.7579 3.82222 12.5145 3.88148 12.2712 3.88148H11.1151V0.0888852H12.332C12.6058 0.0888852 12.8796 0.118517 13.0926 0.177776C13.336 0.237035 13.5185 0.355556 13.701 0.503704C13.8836 0.651852 14.0053 0.859256 14.0965 1.09629C14.1878 1.33333 14.2487 1.62963 14.2487 1.98518H14.2791ZM9.44185 3.88148L8.01197 1.8074C8.01197 1.8074 7.9207 1.65926 7.85986 1.57037C7.79901 1.48148 7.76859 1.42222 7.73816 1.36296C7.73816 1.39259 7.73816 1.45185 7.73816 1.51111C7.73816 1.57037 7.73816 1.65926 7.73816 1.74815C7.73816 1.83704 7.73816 1.8963 7.73816 1.98518C7.73816 2.07407 7.73816 2.13333 7.73816 2.19259V3.85185H6.97759V0.0592606H7.70773L9.07677 2.07407C9.07677 2.07407 9.16803 2.22222 9.22888 2.31111C9.28972 2.4 9.32015 2.45926 9.35057 2.51852C9.35057 2.48889 9.35057 2.42963 9.35057 2.37037C9.35057 2.31111 9.35057 2.22222 9.35057 2.13333C9.35057 2.04444 9.35057 1.98518 9.35057 1.89629C9.35057 1.80741 9.35057 1.74815 9.35057 1.68889V0.0888852H10.1111V3.88148H9.41142H9.44185ZM5.15221 3.88148V0.0888852H5.94321V3.88148H5.15221ZM3.29643 3.88148V2.48889C3.29643 2.48889 3.29643 2.37037 3.29643 2.28148C3.29643 2.19259 3.29643 2.13333 3.29643 2.04445C3.29643 1.95556 3.29643 1.89629 3.29643 1.8074C3.29643 1.74814 3.29643 1.68889 3.29643 1.65926C3.29643 1.71852 3.23558 1.83704 3.17473 1.95555C3.11389 2.07407 3.08346 2.19259 3.02262 2.31111L2.23162 4L1.44063 2.31111C1.44063 2.31111 1.34936 2.1037 1.28852 1.95555C1.22767 1.83704 1.19724 1.74815 1.16682 1.65926C1.16682 1.68889 1.16682 1.74814 1.16682 1.8074C1.16682 1.86666 1.16682 1.95556 1.16682 2.04445C1.16682 2.13333 1.16682 2.22222 1.16682 2.28148C1.16682 2.37037 1.16682 2.42963 1.16682 2.48889V3.88148H0.40625V0.0888852H1.16682L1.98824 1.8074C1.98824 1.8074 2.04908 1.92593 2.07951 1.98518C2.07951 2.04444 2.14035 2.1037 2.14035 2.16296C2.14035 2.22222 2.17078 2.28148 2.2012 2.31111C2.2012 2.37037 2.23162 2.4 2.26205 2.42963C2.26205 2.37037 2.32288 2.25185 2.38373 2.13333C2.44458 2.01481 2.47501 1.8963 2.53585 1.77778L3.32684 0.0592606H4.08742V3.85185H3.29643V3.88148Z" fill="white"/>
</svg>
