<svg width="39" height="25" viewBox="0 0 39 25" fill="none" xmlns="http://www.w3.org/2000/svg">
<path d="M14.0762 12.2579C12.538 13.6306 12.2319 14.029 13.1578 13.4671C13.6357 13.2323 13.6805 13.1968 13.2847 13.339C11.4628 13.1114 9.64079 12.8838 7.81883 12.6562L8.22206 12.8767L5.67578 10.4513C7.17666 12.9265 7.56495 15.8214 9.63333 18.0192C10.8057 19.2568 12.1199 20.1672 13.7925 20.6935C14.6139 21.0421 15.4875 21.2057 16.406 21.1914C17.5186 21.3621 17.6231 21.3195 16.6972 21.0705C15.047 19.4986 13.3967 17.9267 11.739 16.3477L11.9556 16.9238C12.1945 15.1883 12.4335 13.4528 12.6724 11.7173C13.3146 10.4015 13.8373 10.7713 12.4708 11.6747C15.7041 14.7545 18.9448 17.8414 22.178 20.9211C21.4463 22.2228 21.4836 21.5399 23.1413 21.0634C24.6646 20.6295 26.1655 20.3095 27.5319 19.4773C29.0627 18.5526 30.2276 17.251 31.0564 15.7289C32.1765 13.5453 31.9898 13.5666 30.4814 15.7787C30.9145 15.3306 31.4148 15.1599 31.9823 15.2737H28.2114L28.9656 15.4871C27.5543 14.4486 26.1431 13.4173 24.7243 12.3788L25.0827 12.9692C24.8438 11.2337 24.6048 9.49818 24.3659 7.76268C24.0747 9.64754 19.796 12.201 18.1906 13.4528C15.2262 15.7645 15.6742 20.6082 18.1906 23.0123C21.1252 25.8076 25.247 25.331 28.2264 23.0123C31.5119 20.4517 34.9094 17.8129 36.9778 14.1925C39.9646 8.9505 36.9255 2.0014 30.1006 2.0014C27.6215 2.0014 25.023 3.06119 22.977 4.33436C21.6553 5.15943 17.9517 7.90493 18.4072 9.74712C20.7145 8.15387 21.1999 7.5493 19.8558 7.93339C19.3853 8.02585 18.9224 8.15387 18.4669 8.30324C17.3618 8.63754 16.1596 9.09986 15.1291 9.5693C12.889 10.5864 11.1118 12.0018 9.93201 14.1143C6.82571 19.6693 13.4565 27.4292 19.6392 23.3608C23.3877 20.8927 27.2482 17.6493 25.4337 12.77C24.6646 10.7073 22.9695 8.42416 20.4755 8.04718C13.9941 7.07275 20.8116 8.71578 20.4083 9.19945C20.3635 9.25635 19.7214 7.35725 19.5795 7.02296C18.4445 4.32014 17.1676 1.80225 14.1434 0.649996C8.5506 -1.4767 1.62115 3.4595 0.404015 8.65888C-1.58223 17.1301 12.0975 20.7504 14.0837 12.2508L14.0762 12.2579Z" fill="#FFD400"/>
</svg>
